<svg width="current" height="current" viewBox="0 0 255 49" fill="none" xmlns="http://www.w3.org/2000/svg">
<rect x="0.836388" y="1.63723" width="253.327" height="46.6348" rx="23.3174" stroke="#00B5FE" stroke-width="1.36467"/>
<path d="M58.0156 23.2679V25.2842H60.032V27.3006H58.0156V31.3333H60.032V33.3496H58.0156V40.4068H55.9993V23.2679H58.0156ZM60.032 23.2679H65.0728V25.2842H60.032V23.2679ZM67.0892 25.2842V33.3496H65.0728V25.2842H67.0892ZM65.0728 35.3659H60.032V33.3496H65.0728V35.3659Z" fill="#00B5FE"/>
<path d="M43.5647 23.7451H45.4774V25.3202H45.5224C45.8374 24.6751 46.3324 24.2101 47.0075 23.9251C47.6826 23.6251 48.4251 23.475 49.2352 23.475C50.1353 23.475 50.9153 23.6401 51.5754 23.9701C52.2505 24.3001 52.8055 24.7501 53.2405 25.3202C53.6906 25.8752 54.0281 26.5203 54.2531 27.2554C54.4782 27.9904 54.5907 28.7705 54.5907 29.5956C54.5907 30.4206 54.4782 31.2007 54.2531 31.9358C54.0431 32.6708 53.7131 33.3159 53.263 33.8709C52.828 34.411 52.273 34.8385 51.5979 35.1536C50.9378 35.4686 50.1653 35.6261 49.2802 35.6261C48.9952 35.6261 48.6726 35.5961 48.3126 35.5361C47.9676 35.4761 47.6226 35.3786 47.2775 35.2436C46.9325 35.1086 46.6025 34.9285 46.2874 34.7035C45.9874 34.4635 45.7324 34.171 45.5224 33.8259H45.4774V39.8115H43.5647V23.7451ZM52.5655 29.4606C52.5655 28.9205 52.4905 28.3955 52.3405 27.8854C52.2055 27.3604 51.9879 26.8953 51.6879 26.4903C51.4029 26.0853 51.0279 25.7627 50.5628 25.5227C50.1128 25.2827 49.5802 25.1627 48.9652 25.1627C48.3201 25.1627 47.7726 25.2902 47.3225 25.5452C46.8725 25.8002 46.505 26.1378 46.2199 26.5578C45.9349 26.9628 45.7249 27.4279 45.5899 27.9529C45.4699 28.478 45.4099 29.0105 45.4099 29.5506C45.4099 30.1206 45.4774 30.6757 45.6124 31.2157C45.7474 31.7408 45.9574 32.2058 46.2424 32.6108C46.5425 33.0159 46.925 33.3459 47.39 33.6009C47.8551 33.8409 48.4176 33.961 49.0777 33.961C49.7377 33.961 50.2853 33.8334 50.7203 33.5784C51.1704 33.3234 51.5304 32.9859 51.8004 32.5658C52.0704 32.1458 52.2655 31.6658 52.3855 31.1257C52.5055 30.5857 52.5655 30.0306 52.5655 29.4606Z" fill="#00B5FE"/>
<path d="M41.7172 35.3336C41.3872 35.5286 40.9296 35.6261 40.3446 35.6261C39.8495 35.6261 39.452 35.4911 39.152 35.2211C38.867 34.936 38.7244 34.4785 38.7244 33.8484C38.1994 34.4785 37.5843 34.936 36.8793 35.2211C36.1892 35.4911 35.4392 35.6261 34.6291 35.6261C34.104 35.6261 33.6015 35.5661 33.1215 35.4461C32.6564 35.3261 32.2514 35.1386 31.9063 34.8835C31.5613 34.6285 31.2838 34.2985 31.0738 33.8935C30.8788 33.4734 30.7812 32.9709 30.7812 32.3858C30.7812 31.7258 30.8938 31.1857 31.1188 30.7657C31.3438 30.3456 31.6363 30.0081 31.9964 29.7531C32.3714 29.4831 32.7914 29.2805 33.2565 29.1455C33.7365 29.0105 34.2241 28.898 34.7191 28.808C35.2441 28.703 35.7392 28.628 36.2042 28.583C36.6843 28.523 37.1043 28.448 37.4643 28.358C37.8244 28.253 38.1094 28.1104 38.3194 27.9304C38.5294 27.7354 38.6344 27.4579 38.6344 27.0979C38.6344 26.6778 38.5519 26.3403 38.3869 26.0853C38.2369 25.8302 38.0344 25.6352 37.7794 25.5002C37.5393 25.3652 37.2618 25.2752 36.9468 25.2302C36.6468 25.1852 36.3467 25.1627 36.0467 25.1627C35.2366 25.1627 34.5616 25.3202 34.0215 25.6352C33.4815 25.9353 33.189 26.5128 33.144 27.3679H31.2313C31.2613 26.6478 31.4113 26.0403 31.6813 25.5452C31.9514 25.0502 32.3114 24.6526 32.7614 24.3526C33.2115 24.0376 33.7215 23.8126 34.2916 23.6776C34.8766 23.5425 35.4992 23.475 36.1592 23.475C36.6843 23.475 37.2018 23.5125 37.7119 23.5875C38.2369 23.6626 38.7094 23.8201 39.1295 24.0601C39.5495 24.2851 39.887 24.6076 40.1421 25.0277C40.3971 25.4477 40.5246 25.9953 40.5246 26.6703V32.6558C40.5246 33.1059 40.5471 33.4359 40.5921 33.6459C40.6521 33.8559 40.8321 33.961 41.1322 33.961C41.2972 33.961 41.4922 33.9235 41.7172 33.8484V35.3336ZM38.6119 29.3706C38.3719 29.5506 38.0569 29.6856 37.6669 29.7756C37.2768 29.8506 36.8643 29.9181 36.4292 29.9781C36.0092 30.0231 35.5817 30.0831 35.1466 30.1581C34.7116 30.2181 34.3216 30.3231 33.9765 30.4732C33.6315 30.6232 33.3465 30.8407 33.1215 31.1257C32.9114 31.3957 32.8064 31.7708 32.8064 32.2508C32.8064 32.5658 32.8664 32.8359 32.9864 33.0609C33.1215 33.2709 33.2865 33.4434 33.4815 33.5784C33.6915 33.7134 33.9315 33.8109 34.2016 33.8709C34.4716 33.931 34.7566 33.961 35.0566 33.961C35.6867 33.961 36.2267 33.8785 36.6768 33.7134C37.1268 33.5334 37.4943 33.3159 37.7794 33.0609C38.0644 32.7909 38.2744 32.5058 38.4094 32.2058C38.5444 31.8908 38.6119 31.5982 38.6119 31.3282V29.3706Z" fill="#00B5FE"/>
<path d="M25.8392 28.8079V35.3785H23.7015V28.8079L17.491 19.3121H20.0337L24.8491 26.9627L29.552 19.3121H31.9822L25.8392 28.8079Z" fill="#00B5FE"/>
<path d="M111.029 18.1544H113.045V25.2116H115.062V27.2279H113.045V35.2933H111.029V18.1544ZM119.094 23.1952V25.2116H115.062V23.1952H119.094ZM121.111 25.2116V35.2933H119.094V25.2116H121.111Z" fill="#00B5FE"/>
<path d="M102.087 23.1953V20.1708H104.104V23.1953H108.136V25.2117H104.104V33.277H102.087V25.2117H100.071V23.1953H102.087ZM108.136 33.277V35.2934H104.104V33.277H108.136Z" fill="#00B5FE"/>
<path d="M87.8381 18.1544H96.9117V20.1707H87.8381V18.1544ZM89.8545 24.2034H95.9035V26.2197H89.8545V24.2034ZM97.9198 26.2197V33.2769H95.9035V26.2197H97.9198ZM95.9035 35.2933H87.8381V33.2769H95.9035V35.2933ZM85.8218 30.2524H87.8381V33.2769H85.8218V30.2524ZM87.8381 20.1707V26.2197H89.8545V28.2361H85.8218V20.1707H87.8381Z" fill="#00B5FE"/>
<path d="M72.4734 31.2606V33.2769H82.5551V35.2932H70.457V31.2606H72.4734ZM72.4734 20.1707V24.2034H70.457V20.1707H72.4734ZM72.4734 18.1543H80.5387V20.1707H72.4734V18.1543ZM82.5551 20.1707V25.2115H80.5387V20.1707H82.5551ZM72.4734 29.2442H74.4897V31.2606H72.4734V29.2442ZM80.5387 25.2115V27.2279H78.5224V25.2115H80.5387ZM74.4897 27.2279H78.5224V29.2442H74.4897V27.2279Z" fill="#00B5FE"/>
<g filter="url(#filter0_d_440_14948)">
<path d="M208.099 19.0844H205.97V16.4787H208.099V19.0844ZM205.97 21.4145H208.099V34.3676H205.97V21.4145Z" fill="#00B5FE"/>
<path d="M200.397 21.4147H202.978V23.2937H200.397V31.3362C200.397 31.5868 200.414 31.7872 200.448 31.9375C200.498 32.0879 200.581 32.2048 200.698 32.2883C200.815 32.3718 200.974 32.4303 201.174 32.4637C201.391 32.4804 201.667 32.4887 202.001 32.4887H202.978V34.3678H201.349C200.798 34.3678 200.322 34.3344 199.921 34.2676C199.537 34.1841 199.22 34.0421 198.969 33.8417C198.735 33.6412 198.56 33.3573 198.443 32.9898C198.326 32.6223 198.268 32.138 198.268 31.5367V23.2937H196.063V21.4147H198.268V17.5312H200.397V21.4147Z" fill="#00B5FE"/>
<path d="M193.64 19.0844H191.511V16.4787H193.64V19.0844ZM191.511 21.4145H193.64V34.3676H191.511V21.4145Z" fill="#00B5FE"/>
<path d="M127.522 16.4177H138.866V18.5281H129.632V24.8595H138.866V26.97H135.964V29.0805H133.853V26.97H129.632V34.3566H127.522V16.4177ZM140.976 18.5281V24.8595H138.866V18.5281H140.976ZM138.074 32.2462H140.185V34.3566H138.074V32.2462ZM135.964 29.0805H138.074V32.2462H135.964V29.0805Z" fill="#00B5FE"/>
<path d="M169.343 21.8479H171.347V24.5788H171.397C171.915 23.5265 172.55 22.7498 173.301 22.2488C174.053 21.7477 175.005 21.5138 176.158 21.5472V23.8021C175.306 23.8021 174.579 23.9191 173.978 24.1529C173.377 24.3867 172.892 24.7291 172.525 25.1801C172.157 25.6311 171.89 26.1823 171.723 26.8337C171.556 27.4684 171.472 28.2034 171.472 29.0385V34.801H169.343V21.8479Z" fill="#00B5FE"/>
<path d="M157.894 23.7772V32.5964H155.689V23.7772H157.894ZM166.713 23.7772V25.982H164.508V23.7772H166.713ZM166.713 30.3916V32.5964H164.508V30.3916H166.713ZM164.508 34.8012H157.894V32.5964H164.508V34.8012ZM164.508 21.5724V23.7772H157.894V21.5724H164.508Z" fill="#00B5FE"/>
<path d="M151.148 27.0839C151.115 26.5828 150.998 26.1068 150.798 25.6558C150.614 25.2048 150.355 24.8207 150.021 24.5033C149.704 24.1692 149.319 23.9103 148.869 23.7266C148.434 23.5262 147.95 23.426 147.415 23.426C146.864 23.426 146.363 23.5262 145.912 23.7266C145.478 23.9103 145.102 24.1692 144.785 24.5033C144.467 24.8374 144.217 25.2299 144.033 25.6809C143.849 26.1151 143.741 26.5828 143.707 27.0839H151.148ZM153.203 30.6917C152.919 32.1449 152.293 33.239 151.324 33.9739C150.355 34.7088 149.136 35.0763 147.666 35.0763C146.63 35.0763 145.728 34.9092 144.96 34.5752C144.208 34.2411 143.574 33.7734 143.056 33.1721C142.538 32.5708 142.146 31.8526 141.878 31.0175C141.628 30.1823 141.486 29.272 141.452 28.2865C141.452 27.301 141.603 26.3991 141.903 25.5806C142.204 24.7622 142.622 24.0523 143.156 23.451C143.707 22.8497 144.35 22.382 145.085 22.048C145.837 21.7139 146.655 21.5469 147.541 21.5469C148.693 21.5469 149.645 21.7891 150.397 22.2735C151.165 22.7411 151.775 23.3424 152.226 24.0774C152.693 24.8123 153.011 25.614 153.178 26.4826C153.362 27.3512 153.437 28.178 153.403 28.963H143.707C143.691 29.5309 143.757 30.0737 143.908 30.5915C144.058 31.0926 144.3 31.5436 144.634 31.9445C144.968 32.3286 145.394 32.6376 145.912 32.8715C146.43 33.1053 147.04 33.2222 147.741 33.2222C148.643 33.2222 149.378 33.0135 149.946 32.5959C150.53 32.1783 150.915 31.5436 151.098 30.6917H153.203Z" fill="#00B5FE"/>
<path d="M186.432 32.2272H184.297V30.0922H186.432V21.5522H188.567V34.3622H186.432V32.2272ZM184.297 34.3622H180.027V32.2272H184.297V34.3622ZM177.892 21.5522H180.027V32.2272H177.892V21.5522Z" fill="#00B5FE"/>
<path d="M236.481 21.435V37.4475H234.346V32.11H232.211V29.975H234.346V25.705H232.211V23.57H234.346V21.435H236.481ZM226.874 21.435H232.211V23.57H226.874V21.435ZM226.874 32.11H232.211V34.245H226.874V32.11ZM224.739 23.57H226.874V32.11H224.739V23.57ZM224.739 34.245H226.874V37.4475H224.739V34.245ZM226.874 37.4475H234.346V39.5825H226.874V37.4475Z" fill="#00B5FE"/>
<path d="M211.022 21.435H213.157V23.57H215.292V25.705H213.157V34.245H211.022V21.435ZM215.292 21.435H219.562V23.57H215.292V21.435ZM221.697 23.57V34.245H219.562V23.57H221.697Z" fill="#00B5FE"/>
</g>
<defs>
<filter id="filter0_d_440_14948" x="126.393" y="8.54899" width="111.841" height="33.1353" filterUnits="userSpaceOnUse" color-interpolation-filters="sRGB">
<feFlood flood-opacity="0" result="BackgroundImageFix"/>
<feColorMatrix in="SourceAlpha" type="matrix" values="0 0 0 0 0 0 0 0 0 0 0 0 0 0 0 0 0 0 127 0" result="hardAlpha"/>
<feOffset dy="0.225827"/>
<feGaussianBlur stdDeviation="0.564567"/>
<feComposite in2="hardAlpha" operator="out"/>
<feColorMatrix type="matrix" values="0 0 0 0 0 0 0 0 0 0 0 0 0 0 0 0 0 0 0.25 0"/>
<feBlend mode="normal" in2="BackgroundImageFix" result="effect1_dropShadow_440_14948"/>
<feBlend mode="normal" in="SourceGraphic" in2="effect1_dropShadow_440_14948" result="shape"/>
</filter>
</defs>
</svg>
