<svg width="current" height="current" viewBox="0 0 45 37" fill="none" xmlns="http://www.w3.org/2000/svg">
<path d="M33.0045 7.57117H11.9961V16.0408H33.0045V7.57117Z" fill="#00B5FE"/>
<path d="M33.714 25.8829H11.2861V36.9549H33.714V25.8829Z" fill="#00B5FE"/>
<path d="M12.0907 9.08594H7.50098V16.0414H12.0907V9.08594Z" fill="#00B5FE"/>
<path d="M33.0031 16.041L37.5928 16.041L37.5928 9.08552L33.0031 9.08552L33.0031 16.041Z" fill="#00B5FE"/>
<path d="M11.2856 27.0195H6.83789V35.1579H11.2856V27.0195Z" fill="#00B5FE"/>
<path d="M33.7144 35.1562L38.1621 35.1562L38.1621 27.0179L33.7144 27.0179L33.7144 35.1562Z" fill="#00B5FE"/>
<path d="M7.54866 12.1602H2.95898V16.0401H7.54866V12.1602Z" fill="#00B5FE"/>
<path d="M37.5461 16.0409L42.1357 16.0409L42.1357 12.161L37.5461 12.161L37.5461 16.0409Z" fill="#00B5FE"/>
<path d="M7.02789 9.08594L11.9961 9.08594L11.9961 3.69188L7.02789 3.69188L7.02789 9.08594Z" fill="#007CFF"/>
<path d="M32.7193 9.08594L37.6875 9.08594L37.6875 3.69188L32.7193 3.69188L32.7193 9.08594Z" fill="#007CFF"/>
<path d="M9.10894 3.69043L14.0771 3.69043L14.0771 -0.000238419L9.10894 -0.000238853L9.10894 3.69043Z" fill="#007CFF"/>
<path d="M30.733 3.69043L35.7012 3.69043L35.7012 -0.000238419L30.733 -0.000238853L30.733 3.69043Z" fill="#007CFF"/>
<path d="M11.9959 7.57117L16.207 7.57117L16.207 3.69123L11.9959 3.69123L11.9959 7.57117Z" fill="#007CFF"/>
<path d="M28.5086 7.57129L32.7197 7.57129L32.7197 3.69136L28.5086 3.69136L28.5086 7.57129Z" fill="#007CFF"/>
<path d="M6.83892 27.0654H2.95898V31.6078H6.83892V27.0654Z" fill="#00B5FE"/>
<path d="M38.1142 31.5605L41.9941 31.5605L41.9941 27.0182L38.1142 27.0182L38.1142 31.5605Z" fill="#00B5FE"/>
<path d="M44.6912 16.0409H0.308594V27.0656H44.6912V16.0409Z" fill="#00B5FE"/>
<path d="M11.2381 22.8545L15.0234 22.8545L15.0234 19.0692L11.2381 19.0692L11.2381 22.8545Z" fill="white"/>
<path d="M29.9286 22.8545L33.7139 22.8545L33.7139 19.0692L29.9286 19.0692L29.9286 22.8545Z" fill="white"/>
<path d="M20.6545 24.3682L23.7773 24.3682L23.7773 18.5956L20.6545 18.5956L20.6545 24.3682Z" fill="#FFD98C"/>
<path d="M17.531 23.376L20.7012 23.376L20.7012 19.5434L17.531 19.5434L17.531 23.376Z" fill="#FFD98C"/>
<path d="M23.7761 23.376L26.9463 23.376L26.9463 19.5434L23.7761 19.5434L23.7761 23.376Z" fill="#FFD98C"/>
</svg>
