<svg width="76" height="48" viewBox="0 0 76 48" fill="none" xmlns="http://www.w3.org/2000/svg">
<path opacity="0.5" d="M3.01562 23.6211L16.8698 4.00487L29.1788 19.6717L24.6671 28.1958L3.01562 23.6211Z" fill="url(#paint0_linear_3526_4179)"/>
<path d="M55.7701 17.5477C55.413 18.7834 54.8957 19.8456 54.2411 20.5332C53.5865 21.2207 52.7946 21.5333 51.889 21.2696C50.9152 20.9863 50.4128 20.2971 50.2432 19.3699C50.0735 18.4427 50.2367 17.2773 50.5938 16.0416C50.9509 14.8059 51.4496 13.7382 52.095 13.0481C52.7404 12.358 53.532 12.0454 54.4752 12.3197C55.3809 12.5832 55.8832 13.2723 56.0699 14.2044C56.2566 15.1365 56.1272 16.312 55.7701 17.5477Z" fill="#171717"/>
<path d="M30.6349 17.411C30.992 18.6467 31.5093 19.7089 32.1639 20.3964C32.8185 21.084 33.6104 21.3966 34.5161 21.1329C35.4898 20.8496 35.9922 20.1604 36.1619 19.2332C36.3316 18.3059 36.1683 17.1406 35.8112 15.9049C35.4542 14.6692 34.9554 13.6014 34.31 12.9114C33.6646 12.2213 32.873 11.9087 31.9298 12.183C31.0242 12.4465 30.5218 13.1356 30.3351 14.0677C30.1484 14.9998 30.2781 16.1753 30.6349 17.411Z" fill="#171717"/>
<path d="M43.1278 15.7871C38.4598 15.7871 33.4182 16.644 29.5435 18.8058C25.6688 20.9676 22.9609 24.435 22.9609 29.6556C22.9609 34.7583 25.3476 38.2253 29.0618 40.4168C32.776 42.6084 37.8176 43.5241 43.1278 43.5241C49.2125 43.5241 54.2544 42.398 57.7748 40.1015C61.2952 37.8049 63.2946 34.3377 63.2946 29.6554C63.2946 24.2465 60.819 20.7793 57.0601 18.6644C53.3013 16.5494 48.2599 15.7871 43.1278 15.7871Z" fill="#FA703C"/>
<path fill-rule="evenodd" clip-rule="evenodd" d="M40.7006 25.2766C40.0501 24.8344 39.1949 24.8349 38.5438 25.2779L36.7529 26.4965C36.1944 26.8765 36.1501 27.6832 36.6636 28.1207L38.5828 29.756C39.1798 30.2646 40.0583 30.2641 40.6559 29.7546L42.5772 28.1169C43.0912 27.6787 43.0479 26.8721 42.49 26.4928L40.7006 25.2766Z" fill="#FFCB31"/>
<path fill-rule="evenodd" clip-rule="evenodd" d="M31.3422 27.2589C31.3256 27.191 31.2726 27.138 31.2048 27.1215L29.8185 26.7838C29.6282 26.7374 29.6282 26.4668 29.8185 26.4204L31.2048 26.0827C31.2727 26.0661 31.3257 26.0131 31.3422 25.9453L31.68 24.5587C31.7264 24.3684 31.997 24.3684 32.0433 24.5587L32.3811 25.9452C32.3977 26.013 32.4506 26.066 32.5185 26.0826L33.9053 26.4204C34.0956 26.4668 34.0956 26.7374 33.9053 26.7838L32.5185 27.1216C32.4507 27.1382 32.3977 27.1912 32.3811 27.259L32.0433 28.6455C31.997 28.8358 31.7264 28.8358 31.68 28.6455L31.3422 27.2589Z" fill="white"/>
<path fill-rule="evenodd" clip-rule="evenodd" d="M22.1171 18.764C22.0978 18.6847 22.036 18.6228 21.9567 18.6035L20.3385 18.2093C20.1163 18.1552 20.1163 17.8393 20.3385 17.7851L21.9567 17.3909C22.036 17.3716 22.0978 17.3097 22.1171 17.2305L22.5115 15.6119C22.5656 15.3898 22.8815 15.3898 22.9356 15.6119L23.3299 17.2303C23.3492 17.3096 23.4111 17.3714 23.4903 17.3907L25.1091 17.7851C25.3313 17.8393 25.3313 18.1552 25.1091 18.2093L23.4904 18.6037C23.4111 18.623 23.3493 18.6848 23.3299 18.7641L22.9356 20.3826C22.8815 20.6047 22.5656 20.6047 22.5115 20.3826L22.1171 18.764Z" fill="white"/>
<path fill-rule="evenodd" clip-rule="evenodd" d="M19.3616 24.7672C19.3529 24.7317 19.3252 24.7039 19.2896 24.6952L18.5631 24.5182C18.4633 24.4939 18.4633 24.3521 18.5631 24.3278L19.2896 24.1508C19.3252 24.1421 19.3529 24.1144 19.3616 24.0788L19.5386 23.3521C19.5629 23.2524 19.7048 23.2524 19.7291 23.3521L19.9061 24.0787C19.9147 24.1143 19.9425 24.1421 19.9781 24.1507L20.7048 24.3278C20.8046 24.3521 20.8046 24.4939 20.7048 24.5182L19.9781 24.6953C19.9425 24.7039 19.9148 24.7317 19.9061 24.7673L19.7291 25.4939C19.7048 25.5936 19.5629 25.5936 19.5386 25.4939L19.3616 24.7672Z" fill="white"/>
<path fill-rule="evenodd" clip-rule="evenodd" d="M18.4944 11.4235C18.4857 11.3879 18.458 11.3601 18.4224 11.3515L17.6959 11.1745C17.5962 11.1502 17.5962 11.0083 17.6959 10.984L18.4224 10.807C18.458 10.7984 18.4857 10.7706 18.4944 10.735L18.6714 10.0084C18.6957 9.90866 18.8376 9.90866 18.8619 10.0084L19.0389 10.735C19.0476 10.7705 19.0753 10.7983 19.1109 10.807L19.8377 10.984C19.9374 11.0083 19.9374 11.1502 19.8377 11.1745L19.1109 11.3515C19.0753 11.3602 19.0476 11.388 19.0389 11.4235L18.8619 12.1502C18.8376 12.2499 18.6957 12.2499 18.6714 12.1502L18.4944 11.4235Z" fill="white"/>
<path fill-rule="evenodd" clip-rule="evenodd" d="M15.5517 20.6545C15.539 20.6026 15.4985 20.562 15.4466 20.5494L14.3865 20.2911C14.241 20.2557 14.241 20.0487 14.3865 20.0133L15.4466 19.755C15.4985 19.7423 15.539 19.7018 15.5517 19.6499L15.81 18.5896C15.8454 18.4441 16.0524 18.4441 16.0879 18.5896L16.3462 19.6498C16.3588 19.7017 16.3993 19.7423 16.4512 19.7549L17.5117 20.0133C17.6572 20.0487 17.6572 20.2557 17.5117 20.2911L16.4512 20.5495C16.3993 20.5621 16.3588 20.6027 16.3462 20.6546L16.0879 21.7148C16.0524 21.8603 15.8454 21.8603 15.81 21.7148L15.5517 20.6545Z" fill="white"/>
<path fill-rule="evenodd" clip-rule="evenodd" d="M46.8422 27.2589C46.8256 27.191 46.7726 27.138 46.7048 27.1215L45.3185 26.7838C45.1282 26.7374 45.1282 26.4668 45.3185 26.4204L46.7048 26.0827C46.7727 26.0661 46.8257 26.0131 46.8422 25.9453L47.18 24.5587C47.2264 24.3684 47.497 24.3684 47.5433 24.5587L47.8811 25.9452C47.8977 26.013 47.9506 26.066 48.0185 26.0826L49.4053 26.4204C49.5956 26.4668 49.5956 26.7374 49.4053 26.7838L48.0185 27.1216C47.9507 27.1382 47.8977 27.1912 47.8811 27.259L47.5433 28.6455C47.497 28.8358 47.2264 28.8358 47.18 28.6455L46.8422 27.2589Z" fill="white"/>
<defs>
<linearGradient id="paint0_linear_3526_4179" x1="11.5216" y1="14.1854" x2="26.1835" y2="23.7556" gradientUnits="userSpaceOnUse">
<stop stop-color="#FFCB31" stop-opacity="0"/>
<stop offset="1" stop-color="#FFCB31"/>
</linearGradient>
</defs>
</svg>
