<svg width="18" height="21" viewBox="0 0 18 21" fill="none" xmlns="http://www.w3.org/2000/svg">
<g clip-path="url(#clip0_18_5087)">
<path d="M14.5783 19.2874C13.4799 20.3428 12.2806 20.1762 11.1261 19.6762C9.90438 19.1652 8.78352 19.1429 7.49454 19.6762C5.88052 20.365 5.02868 20.165 4.06475 19.2874C-1.40499 13.6992 -0.597979 5.1892 5.61152 4.87812C7.12467 4.95589 8.17827 5.70024 9.06374 5.7669C10.3864 5.50027 11.6529 4.7337 13.0652 4.83369C14.7577 4.967 16.0354 5.63358 16.8761 6.83343C13.379 8.91095 14.2085 13.477 17.4141 14.7546C16.7752 16.4211 15.9458 18.0764 14.5671 19.2985L14.5783 19.2874ZM8.95165 4.81147C8.78352 2.334 10.8123 0.289819 13.1437 0.0898438C13.4687 2.95614 10.5209 5.08921 8.95165 4.81147Z" fill="white"/>
</g>
<defs>
<clipPath id="clip0_18_5087">
<rect width="18" height="20" fill="white" transform="translate(0 0.0898438)"/>
</clipPath>
</defs>
</svg>
