<svg width="70" height="71" viewBox="0 0 70 71" fill="none" xmlns="http://www.w3.org/2000/svg">
<path d="M36.5645 17.7699V2.48193C36.5645 2.26493 36.4997 2.06893 36.4052 1.88868C36.1865 1.46693 35.7595 1.16943 35.252 1.16943C34.5275 1.16943 33.9395 1.75743 33.9395 2.48193V17.5704C34.8057 17.3132 35.7332 17.3849 36.5645 17.7699Z" fill="#333D4B"/>
<path d="M39.5443 60.61L35.1046 38.6948H35.0363C34.7336 40.2768 32.3623 52.6563 30.6911 60.6485C30.0121 63.893 27.1543 66.2188 23.8398 66.2205H46.4061C43.0758 66.2205 40.2058 63.8738 39.5443 60.61Z" fill="#A41926"/>
<path d="M35.0354 38.6967H58.3839C59.4164 38.6967 60.2546 37.8585 60.2546 36.826V32.7012H9.74609V36.826C9.74609 37.8585 10.5844 38.6967 11.6169 38.6967H35.0354Z" fill="#E03B28"/>
<path d="M36.5647 15.9114L49.24 10.5459C50.6645 9.94392 50.6645 7.92617 49.24 7.32242L36.4072 1.88867C36.5 2.06892 36.5665 2.26492 36.5665 2.48192V15.9114H36.5647Z" fill="#FB6250"/>
<path d="M30.6898 60.6485C32.3611 52.6563 34.7323 40.2768 35.0351 38.6948H13.4523L8.30033 64.1223C8.07983 65.2073 8.90933 66.2205 10.0153 66.2205H23.8386C27.1548 66.2205 30.0108 63.8948 30.6898 60.6485Z" fill="#FB6250"/>
<path d="M56.548 38.6968H35.1035L39.5433 60.6121C40.2048 63.8758 43.073 66.2226 46.4033 66.2226H59.9833C61.0893 66.2226 61.9188 65.2093 61.6983 64.1243L56.548 38.6968Z" fill="#FB6250"/>
<path d="M36.8096 17.8682C36.7309 17.8245 36.6434 17.8087 36.5629 17.7702C35.7316 17.3852 34.8041 17.3135 33.9379 17.5707C33.6824 17.646 33.4286 17.7352 33.1889 17.8682L9.74414 32.7012H60.2526L36.8096 17.8682Z" fill="#FB6250"/>
</svg>
