<svg width="32" height="32" viewBox="0 0 20 18" fill="none" xmlns="http://www.w3.org/2000/svg">
<path d="M17.2727 0.5H2.72727C2.00396 0.5 1.31026 0.787798 0.7988 1.30008C0.287337 1.81237 0 2.50717 0 3.23166V11.4266C0 11.7853 0.070543 12.1406 0.207601 12.472C0.34466 12.8034 0.545549 13.1045 0.7988 13.3582C1.05205 13.6118 1.3527 13.8131 1.68359 13.9503C2.01448 14.0876 2.36912 14.1583 2.72727 14.1583H4.09091L6.18182 16.9446C6.30884 17.1142 6.47354 17.2519 6.66289 17.3467C6.85224 17.4415 7.06103 17.4909 7.27273 17.4909C7.48443 17.4909 7.69322 17.4415 7.88256 17.3467C8.07191 17.2519 8.23662 17.1142 8.36364 16.9446L10.4545 14.1583H17.2727C17.996 14.1583 18.6897 13.8705 19.2012 13.3582C19.7127 12.8459 20 12.1511 20 11.4266V3.23166C20 2.87293 19.9295 2.51772 19.7924 2.1863C19.6553 1.85488 19.4545 1.55374 19.2012 1.30008C18.948 1.04643 18.6473 0.845213 18.3164 0.707935C17.9855 0.570656 17.6309 0.5 17.2727 0.5ZM18.1818 11.4266C18.1818 11.6681 18.086 11.8997 17.9156 12.0705C17.7451 12.2412 17.5138 12.3372 17.2727 12.3372H9.54545L7.27273 15.3693L5 12.3372H2.72727C2.48617 12.3372 2.25494 12.2412 2.08445 12.0705C1.91396 11.8997 1.81818 11.6681 1.81818 11.4266V3.23166C1.81818 2.99016 1.91396 2.75856 2.08445 2.5878C2.25494 2.41704 2.48617 2.3211 2.72727 2.3211H17.2727C17.5138 2.3211 17.7451 2.41704 17.9156 2.5878C18.086 2.75856 18.1818 2.99016 18.1818 3.23166V11.4266Z" fill="#ffffff"/>
<path d="M4.54557 9.60553H14.5456C14.7867 9.60553 15.0179 9.50959 15.1884 9.33883C15.3589 9.16807 15.4547 8.93647 15.4547 8.69498C15.4547 8.45348 15.3589 8.22188 15.1884 8.05112C15.0179 7.88036 14.7867 7.78442 14.5456 7.78442H4.54557C4.30446 7.78442 4.07323 7.88036 3.90274 8.05112C3.73225 8.22188 3.63647 8.45348 3.63647 8.69498C3.63647 8.93647 3.73225 9.16807 3.90274 9.33883C4.07323 9.50959 4.30446 9.60553 4.54557 9.60553Z" fill="#ffffff"/>
<path d="M9.54557 4.14209H4.54557C4.30446 4.14209 4.07323 4.23802 3.90274 4.40878C3.73225 4.57955 3.63647 4.81115 3.63647 5.05264C3.63647 5.29413 3.73225 5.52574 3.90274 5.6965C4.07323 5.86726 4.30446 5.96319 4.54557 5.96319H9.54557C9.78667 5.96319 10.0179 5.86726 10.1884 5.6965C10.3589 5.52574 10.4547 5.29413 10.4547 5.05264C10.4547 4.81115 10.3589 4.57955 10.1884 4.40878C10.0179 4.23802 9.78667 4.14209 9.54557 4.14209Z" fill="#ffffff"/>
</svg>
