<svg width="70" height="71" viewBox="0 0 70 71" fill="none" xmlns="http://www.w3.org/2000/svg">
<g clip-path="url(#clip0_18_1777)">
<mask id="mask0_18_1777" style="mask-type:luminance" maskUnits="userSpaceOnUse" x="0" y="0" width="70" height="71">
<path d="M70 0.0898438H0V70.0898H70V0.0898438Z" fill="white"/>
</mask>
<g mask="url(#mask0_18_1777)">
<path d="M57.125 37.9976C57.125 35.255 59.3075 33.0319 62 33.0319V20.4972C62 19.116 60.9005 17.9976 59.546 17.9976H10.454C9.098 17.9976 8 19.1175 8 20.4972V33.0319C10.6925 33.0319 12.875 35.255 12.875 37.9976C12.875 40.7401 10.6925 42.9632 8 42.9632V55.498C8 56.8792 9.0995 57.9976 10.454 57.9976H59.5445C60.9005 57.9976 61.9985 56.8776 61.9985 55.498V42.9632C59.306 42.9632 57.125 40.7401 57.125 37.9976Z" fill="white"/>
<path d="M43 35.1085L37.4715 34.2637L35 28.9976L32.5285 34.2637L27 35.1085L31 39.209L30.0556 44.9976L35 42.2644L39.9444 44.9976L39 39.209L43 35.1085Z" fill="#FB6250"/>
</g>
</g>
<defs>
<clipPath id="clip0_18_1777">
<rect width="70" height="70" fill="white" transform="translate(0 0.0898438)"/>
</clipPath>
</defs>
</svg>
