<svg width="28" height="27" viewBox="0 0 28 27" fill="none" xmlns="http://www.w3.org/2000/svg">
<path d="M27.3323 14.0001C27.3323 6.63637 21.3629 0.666992 13.9991 0.666992C6.6354 0.666992 0.666016 6.63637 0.666016 14.0001C0.666016 19.8453 4.42691 24.811 9.66033 26.6113C9.97932 26.3809 10.3473 26.0969 10.3473 25.6199C10.3473 24.8863 10.331 22.9997 10.331 22.9997C9.86565 23.0679 9.39581 23.1004 8.92553 23.0971C6.84417 23.0971 6.1846 21.7768 5.8726 21.0373C5.46438 20.0745 4.93952 19.6225 4.37501 19.2609C4.03035 19.0393 3.95104 18.7775 4.34993 18.7028C6.19218 18.3576 6.66281 20.7801 7.89331 21.1668C8.77157 21.442 9.90059 21.3231 10.4622 20.9615C10.5363 20.222 11.0728 19.5817 11.5195 19.2446C8.39017 18.946 6.53509 17.8648 5.5711 16.1275L5.46788 15.9328L5.22645 15.3811L5.15471 15.1834C4.8538 14.3016 4.72025 13.2916 4.72025 12.1631C4.72025 10.1605 5.34775 9.4047 6.19043 8.33691C5.54603 6.05378 6.4237 4.4932 6.4237 4.4932C6.4237 4.4932 7.77842 4.21386 10.3386 6.03745C11.7259 5.44611 15.4262 5.39596 17.1769 5.90565C18.2505 5.19943 20.2158 4.19753 21.0089 4.47804C21.2235 4.82153 21.686 5.82401 21.29 8.02491C21.5588 8.50778 22.9579 9.5365 22.9631 12.4436C22.941 13.5161 22.8284 14.4218 22.6202 15.1875L22.5036 15.5788C22.5036 15.5788 22.4377 15.7636 22.3654 15.9398L22.2802 16.134C21.3518 18.1617 19.4478 18.9186 16.3709 19.2335C17.3682 19.8575 17.6539 20.6407 17.6539 22.76C17.6539 24.8793 17.6259 25.1638 17.6323 25.6514C17.6382 26.0823 17.9822 26.392 18.2925 26.6264C23.551 24.8384 27.3323 19.861 27.3323 14.0001Z" fill="white"/>
</svg>
