<svg width="22" height="20" viewBox="0 0 22 20" fill="none" xmlns="http://www.w3.org/2000/svg">
<path fill-rule="evenodd" clip-rule="evenodd" d="M21.6654 2.0013C21.6654 2.73768 21.0684 3.33464 20.332 3.33464L1.66536 3.33464C0.928984 3.33464 0.332031 2.73768 0.332031 2.0013C0.332031 1.26492 0.928984 0.667969 1.66536 0.667969L20.332 0.66797C21.0684 0.66797 21.6654 1.26492 21.6654 2.0013ZM21.6654 10.0013C21.6654 10.7377 21.0684 11.3346 20.332 11.3346L1.66536 11.3346C0.928984 11.3346 0.332031 10.7377 0.332031 10.0013C0.332031 9.26492 0.928984 8.66797 1.66536 8.66797L20.332 8.66797C21.0684 8.66797 21.6654 9.26492 21.6654 10.0013ZM20.332 19.3346C21.0684 19.3346 21.6654 18.7377 21.6654 18.0013C21.6654 17.2649 21.0684 16.668 20.332 16.668H1.66536C0.928984 16.668 0.332031 17.2649 0.332031 18.0013C0.332031 18.7377 0.928984 19.3346 1.66536 19.3346H20.332Z" fill="white"/>
</svg>
