<svg width="28" height="28" viewBox="0 0 28 28" fill="none" xmlns="http://www.w3.org/2000/svg">
<path d="M19.1493 0.749024H8.94632C7.87053 0.748855 6.80526 0.9606 5.81131 1.37217C4.81737 1.78373 3.91424 2.38706 3.15349 3.14769C2.39273 3.90833 1.78927 4.81137 1.37755 5.80524C0.965824 6.79912 0.753907 7.86437 0.753907 8.94015V19.1431C0.753569 20.2191 0.965239 21.2846 1.37681 22.2788C1.78838 23.273 2.39179 24.1763 3.15258 24.9372C3.91336 25.6981 4.81662 26.3017 5.81073 26.7134C6.80483 27.1251 7.87032 27.337 8.94632 27.3368H19.1493C20.2249 27.337 21.29 27.1253 22.2838 26.7138C23.2776 26.3023 24.1806 25.699 24.9412 24.9385C25.7018 24.178 26.3052 23.2751 26.7169 22.2814C27.1285 21.2877 27.3404 20.2226 27.3404 19.147V8.94015C27.3406 7.86443 27.1288 6.79921 26.7172 5.80534C26.3057 4.81147 25.7023 3.90842 24.9417 3.14777C24.181 2.38712 23.278 1.78377 22.2841 1.37219C21.2902 0.960609 20.225 0.748855 19.1493 0.749024ZM14.3989 21.0895C13.4793 21.0896 12.5686 20.9086 11.7189 20.5568C10.8692 20.205 10.0971 19.6892 9.44676 19.039C8.79641 18.3888 8.28051 17.6168 7.92853 16.7672C7.57656 15.9175 7.3954 15.0069 7.3954 14.0872C7.3954 13.1676 7.57656 12.2569 7.92853 11.4073C8.28051 10.5576 8.79641 9.78565 9.44676 9.13541C10.0971 8.48517 10.8692 7.96942 11.7189 7.6176C12.5686 7.26577 13.4793 7.08478 14.3989 7.08495C15.3189 7.08428 16.23 7.2649 17.0802 7.61649C17.9303 7.96808 18.7028 8.48376 19.3536 9.13405C20.0044 9.78433 20.5206 10.5565 20.8728 11.4064C21.225 12.2563 21.4063 13.1672 21.4063 14.0872C21.4063 15.9443 20.6686 17.7254 19.3554 19.0386C18.0422 20.3517 16.2612 21.0895 14.4041 21.0895H14.3989ZM20.9159 8.75656C20.6821 8.75656 20.4506 8.71049 20.2346 8.62098C20.0186 8.53147 19.8224 8.40029 19.6572 8.23491C19.4919 8.06954 19.3609 7.87322 19.2715 7.65718C19.1822 7.44114 19.1363 7.20961 19.1364 6.97582C19.1363 6.74197 19.1822 6.51038 19.2715 6.29426C19.3608 6.07815 19.4919 5.88175 19.6571 5.71627C19.8223 5.5508 20.0185 5.41949 20.2345 5.32984C20.4505 5.2402 20.682 5.19397 20.9159 5.1938C21.3884 5.19414 21.8415 5.382 22.1756 5.71612C22.5097 6.05024 22.6976 6.5033 22.6979 6.97582C22.6972 7.44723 22.5099 7.89919 22.177 8.23288C21.844 8.56658 21.3924 8.75486 20.921 8.75656H20.9159Z" fill="white"/>
</svg>
