<svg width="24" height="24" viewBox="0 0 24 24" fill="none" xmlns="http://www.w3.org/2000/svg">
<path d="M12.2432 9.52564C11.911 9.52503 11.582 9.58994 11.2749 9.71664C10.9678 9.84335 10.6887 10.0294 10.4536 10.264C10.2185 10.4987 10.032 10.7775 9.90469 11.0843C9.77742 11.3912 9.71191 11.7201 9.71191 12.0523C9.71181 12.3843 9.77714 12.7131 9.90416 13.0199C10.0312 13.3267 10.2174 13.6055 10.4522 13.8402C10.687 14.075 10.9657 14.2613 11.2725 14.3883C11.5793 14.5153 11.9081 14.5806 12.2401 14.5805C12.9105 14.5803 13.5534 14.3139 14.0273 13.8397C14.5013 13.3656 14.7676 12.7227 14.7676 12.0523C14.7676 11.3826 14.5017 10.7403 14.0283 10.2665C13.555 9.79272 12.9129 9.52625 12.2432 9.52564Z" fill="white"/>
<path d="M15.09 4.04932H8.96818C8.32271 4.04922 7.68354 4.17626 7.08718 4.4232C6.49081 4.67014 5.94893 5.03214 5.49248 5.48852C5.03603 5.9449 4.67395 6.48672 4.42692 7.08305C4.17989 7.67937 4.05273 8.31852 4.05273 8.96399V15.0858C4.05253 15.7314 4.17953 16.3707 4.42648 16.9672C4.67342 17.5637 5.03547 18.1057 5.49194 18.5622C5.94841 19.0188 6.49036 19.3809 7.08683 19.6279C7.68329 19.875 8.32258 20.0021 8.96818 20.002H15.09C15.7353 20.0021 16.3744 19.8751 16.9707 19.6282C17.5669 19.3813 18.1087 19.0193 18.5651 18.563C19.0215 18.1067 19.3835 17.565 19.6305 16.9687C19.8775 16.3725 20.0046 15.7334 20.0046 15.0881V8.96399C20.0047 8.31856 19.8777 7.67943 19.6307 7.08311C19.3838 6.48679 19.0218 5.94496 18.5654 5.48857C18.109 5.03218 17.5672 4.67017 16.9708 4.42322C16.3745 4.17627 15.7354 4.04922 15.09 4.04932ZM12.2398 16.2536C11.688 16.2537 11.1415 16.1451 10.6317 15.934C10.1219 15.7229 9.65866 15.4134 9.26845 15.0233C8.87824 14.6332 8.5687 14.17 8.35751 13.6602C8.14632 13.1504 8.03763 12.604 8.03763 12.0522C8.03763 11.5004 8.14632 10.954 8.35751 10.4443C8.5687 9.93448 8.87824 9.47129 9.26845 9.08115C9.65866 8.69101 10.1219 8.38155 10.6317 8.17046C11.1415 7.95937 11.688 7.85077 12.2398 7.85087C12.7917 7.85047 13.3384 7.95884 13.8485 8.1698C14.3586 8.38075 14.8221 8.69016 15.2126 9.08033C15.603 9.4705 15.9128 9.93379 16.1241 10.4437C16.3354 10.9537 16.4442 11.5002 16.4442 12.0522C16.4442 13.1665 16.0015 14.2351 15.2136 15.023C14.4257 15.8109 13.3571 16.2536 12.2428 16.2536H12.2398ZM16.1499 8.85383C16.0097 8.85384 15.8708 8.82619 15.7412 8.77249C15.6116 8.71879 15.4938 8.64007 15.3947 8.54085C15.2955 8.44163 15.2169 8.32383 15.1633 8.19421C15.1097 8.06459 15.0822 7.92567 15.0823 7.78539C15.0822 7.64508 15.1097 7.50613 15.1633 7.37646C15.2169 7.24679 15.2955 7.12895 15.3946 7.02967C15.4938 6.93038 15.6115 6.85159 15.7411 6.79781C15.8707 6.74402 16.0096 6.71628 16.1499 6.71618C16.4334 6.71639 16.7053 6.8291 16.9057 7.02957C17.1062 7.23004 17.2189 7.50188 17.2191 7.78539C17.2187 8.06824 17.1063 8.33941 16.9066 8.53963C16.7068 8.73985 16.4358 8.85282 16.153 8.85383H16.1499Z" fill="white"/>
</svg>
