<svg width="14" height="14" viewBox="0 0 14 14" fill="none" xmlns="http://www.w3.org/2000/svg">
<path d="M7.14065 5.55664C6.94687 5.55629 6.75492 5.59415 6.57579 5.66806C6.39665 5.74197 6.23386 5.85048 6.09671 5.98738C5.95956 6.12428 5.85075 6.28688 5.77651 6.46588C5.70228 6.64487 5.66406 6.83675 5.66406 7.03053C5.664 7.22422 5.70211 7.41602 5.7762 7.59498C5.8503 7.77394 5.95893 7.93654 6.09589 8.0735C6.23284 8.21046 6.39545 8.31908 6.5744 8.39318C6.75336 8.46727 6.94516 8.50538 7.13885 8.50532C7.52991 8.5052 7.90491 8.34977 8.18139 8.07321C8.45787 7.79664 8.61319 7.42159 8.61319 7.03053C8.61319 6.63987 8.45809 6.26518 8.18197 5.98881C7.90586 5.71244 7.53131 5.557 7.14065 5.55664Z" fill="white"/>
<path d="M8.80166 2.3623H5.23062C4.8541 2.36225 4.48125 2.43636 4.13337 2.58041C3.78549 2.72445 3.4694 2.93562 3.20313 3.20184C2.93687 3.46806 2.72566 3.78413 2.58156 4.13198C2.43745 4.47984 2.36328 4.85268 2.36328 5.2292V8.80023C2.36316 9.17683 2.43725 9.54977 2.5813 9.89773C2.72535 10.2457 2.93654 10.5619 3.20282 10.8282C3.46909 11.0945 3.78523 11.3057 4.13317 11.4498C4.48111 11.5939 4.85403 11.6681 5.23062 11.668H8.80166C9.17813 11.6681 9.55092 11.594 9.89874 11.45C10.2466 11.3059 10.5626 11.0948 10.8288 10.8286C11.0951 10.5624 11.3062 10.2464 11.4503 9.89863C11.5944 9.55082 11.6686 9.17805 11.6686 8.80158V5.2292C11.6686 4.8527 11.5945 4.47987 11.4504 4.13202C11.3064 3.78416 11.0952 3.46809 10.829 3.20187C10.5628 2.93564 10.2467 2.72447 9.89884 2.58041C9.55099 2.43636 9.17816 2.36225 8.80166 2.3623ZM7.13904 9.48146C6.81716 9.48152 6.49842 9.41817 6.20103 9.29503C5.90363 9.17189 5.63341 8.99138 5.40578 8.7638C5.17816 8.53621 4.99759 8.26602 4.8744 7.96865C4.75121 7.67128 4.6878 7.35255 4.6878 7.03067C4.6878 6.70879 4.75121 6.39006 4.8744 6.09269C4.99759 5.79532 5.17816 5.52512 5.40578 5.29754C5.63341 5.06996 5.90363 4.88944 6.20103 4.7663C6.49842 4.64317 6.81716 4.57982 7.13904 4.57988C7.46104 4.57964 7.77992 4.64286 8.07747 4.76592C8.37502 4.88898 8.64541 5.06946 8.87317 5.29706C9.10094 5.52466 9.28163 5.79492 9.4049 6.09238C9.52818 6.38984 9.59163 6.70867 9.59163 7.03067C9.59163 7.68066 9.33342 8.30403 8.87381 8.76364C8.4142 9.22325 7.79083 9.48146 7.14084 9.48146H7.13904ZM9.41998 5.16494C9.33815 5.16494 9.25713 5.14882 9.18153 5.11749C9.10594 5.08616 9.03726 5.04025 8.97942 4.98237C8.92159 4.92448 8.87572 4.85577 8.84445 4.78016C8.81317 4.70455 8.79711 4.62351 8.79717 4.54168C8.79711 4.45984 8.81317 4.37878 8.84444 4.30314C8.87571 4.2275 8.92156 4.15876 8.9794 4.10084C9.03723 4.04293 9.10591 3.99697 9.1815 3.96559C9.25709 3.93421 9.33813 3.91804 9.41998 3.91798C9.58536 3.9181 9.74393 3.98385 9.86087 4.10079C9.97781 4.21773 10.0436 4.3763 10.0437 4.54168C10.0434 4.70668 9.97789 4.86486 9.86135 4.98166C9.74481 5.09845 9.58676 5.16435 9.42177 5.16494H9.41998Z" fill="white"/>
</svg>
