<svg width="96" height="96" viewBox="0 0 1080 1080" fill="none" xmlns="http://www.w3.org/2000/svg">
<path d="M179.617 137.447L180.888 136.303L179.617 137.447Z" fill="white"/>
<path d="M899.625 137.317L492.843 958.961C479.905 983.03 460.6 1003.08 437.038 1016.92C416.586 1028.89 393.569 1035.79 369.908 1037.05C346.247 1038.31 322.628 1033.89 301.021 1024.17C418.142 1082.02 552.269 1095.45 678.535 1061.96C804.801 1028.47 914.641 950.337 987.692 842.047C1060.74 733.758 1092.05 602.656 1075.81 473.046C1059.57 343.436 996.883 224.11 899.37 137.19L899.625 137.317Z" fill="#F58232"/>
<path d="M765.638 49.4809C670.253 5.55976 564.127 -9.58461 460.263 5.90362C356.399 21.3918 259.309 66.84 180.89 136.679C198.142 126.751 217.213 120.389 236.971 117.973C256.729 115.556 276.771 117.134 295.908 122.611C315.045 128.088 332.886 137.354 348.372 149.859C363.859 162.363 376.675 177.851 386.061 195.404L519.154 463.862H341.188L179.746 137.823C114.956 195.842 65.1406 268.652 34.5362 350.058C3.93174 431.464 -6.5556 519.057 3.96636 605.386C14.4883 691.715 45.7082 774.226 94.9701 845.899C144.232 917.572 210.078 976.286 286.908 1017.05L425.595 736.768L693.562 195.404C706.537 171.362 725.833 151.32 749.367 137.441C772.135 124.04 798.075 116.972 824.495 116.972C850.915 116.972 876.854 124.04 899.622 137.441V137.441C859.585 101.62 814.427 71.9734 765.638 49.4809V49.4809Z" fill="#FFCC32"/>
<path d="M519.157 463.863L386.063 195.406C376.689 177.892 363.896 162.437 348.44 149.956C332.985 137.475 315.182 128.223 296.086 122.747C276.99 117.271 256.989 115.683 237.267 118.076C217.546 120.469 198.506 126.796 181.274 136.681L180.003 137.825L341.826 463.863H519.157Z" fill="white"/>
<path d="M436.909 1017.05C460.471 1003.2 479.776 983.154 492.715 959.085L899.496 137.442C876.704 124.041 850.745 116.976 824.305 116.976C797.865 116.976 771.906 124.041 749.114 137.442C725.58 151.32 706.284 171.362 693.309 195.404L286.527 1017.05L300.892 1024.29C322.499 1034.02 346.119 1038.43 369.78 1037.17C393.441 1035.91 416.457 1029.01 436.909 1017.05V1017.05Z" fill="white"/>
</svg>
