<svg width="30" height="30" viewBox="0 0 30 30" fill="none" xmlns="http://www.w3.org/2000/svg">
<path d="M3.85863 8.01879L13.3395 16.4462C14.2867 17.2882 15.7141 17.2882 16.6613 16.4462L26.1415 8.01932C26.2121 8.25045 26.25 8.49579 26.25 8.75V21.25C26.25 22.6307 25.1307 23.75 23.75 23.75H6.25C4.86929 23.75 3.75 22.6307 3.75 21.25V8.75C3.75 8.4956 3.788 8.25007 3.85863 8.01879Z" fill="white"/>
<path d="M5.70002 6.31069C5.87698 6.27096 6.06104 6.25 6.25 6.25H23.75C23.9392 6.25 24.1234 6.27101 24.3006 6.31083L15.0004 14.5777L5.70002 6.31069Z" fill="white"/>
</svg>
