<svg width="14" height="14" viewBox="0 0 14 14" fill="none" xmlns="http://www.w3.org/2000/svg">
<path fill-rule="evenodd" clip-rule="evenodd" d="M1.80066 3.74254L6.22509 7.67536C6.66712 8.06828 7.33323 8.06828 7.77527 7.67536L12.1994 3.74278C12.2323 3.85061 12.25 3.96507 12.25 4.08366V9.91699C12.25 10.5613 11.7277 11.0837 11.0833 11.0837H2.91667C2.27234 11.0837 1.75 10.5613 1.75 9.91699V4.08366C1.75 3.96498 1.76772 3.85044 1.80066 3.74254ZM2.65988 2.94534C2.7425 2.92679 2.82844 2.91699 2.91667 2.91699H11.0833C11.1717 2.91699 11.2577 2.92681 11.3404 2.94541L7.00018 6.80338L2.65988 2.94534Z" fill="white"/>
</svg>
