<svg width="30" height="25.49" viewBox="0 0 20 16" fill="none" xmlns="http://www.w3.org/2000/svg">
<path d="M17.5819 0.727295H17.3364H2.66369H2.41824C1.74974 0.803536 1.13301 1.1242 0.686633 1.62764C0.240252 2.13107 -0.00427684 2.78175 5.66254e-05 3.45457V12.5455C5.66254e-05 13.2688 0.287392 13.9625 0.798855 14.474C1.31032 14.9854 2.00401 15.2728 2.72733 15.2728H17.2728C17.9961 15.2728 18.6898 14.9854 19.2013 14.474C19.7127 13.9625 20.0001 13.2688 20.0001 12.5455V3.45457C20.0044 2.78175 19.7599 2.13107 19.3135 1.62764C18.8671 1.1242 18.2504 0.803536 17.5819 0.727295ZM17.1637 2.54548L10.9092 8.80003C10.7388 8.96935 10.5084 9.06439 10.2682 9.06439C10.0281 9.06439 9.79766 8.96935 9.62733 8.80003L3.37279 2.54548H17.1637ZM18.1819 12.5455C18.1819 12.7866 18.0861 13.0178 17.9156 13.1883C17.7451 13.3588 17.5139 13.4546 17.2728 13.4546H2.72733C2.48623 13.4546 2.25499 13.3588 2.08451 13.1883C1.91402 13.0178 1.81824 12.7866 1.81824 12.5455V3.8273L8.07279 10.0818C8.58415 10.5926 9.27733 10.8794 10.0001 10.8794C10.7228 10.8794 11.416 10.5926 11.9273 10.0818L18.1819 3.8273V12.5455Z" fill="#ffffff"/>
</svg>
