<svg width="24" height="24" viewBox="0 0 24 24" fill="none" xmlns="http://www.w3.org/2000/svg">
<path fill-rule="evenodd" clip-rule="evenodd" d="M3.0869 6.41503L10.6716 13.157C11.4293 13.8305 12.5713 13.8305 13.329 13.157L20.9132 6.41545C20.9696 6.60036 21 6.79663 21 7V17C21 18.1046 20.1046 19 19 19H5C3.89543 19 3 18.1046 3 17V7C3 6.79648 3.0304 6.60006 3.0869 6.41503ZM4.56002 5.04855C4.70159 5.01677 4.84884 5 5 5H19C19.1513 5 19.2987 5.01681 19.4405 5.04866L12.0003 11.6621L4.56002 5.04855Z" fill="white"/>
</svg>
