<svg width="70" height="71" viewBox="0 0 70 71" fill="none" xmlns="http://www.w3.org/2000/svg">
<g clip-path="url(#clip0_18_1695)">
<mask id="mask0_18_1695" style="mask-type:luminance" maskUnits="userSpaceOnUse" x="0" y="0" width="70" height="71">
<path d="M70 0.0898438H0V70.0898H70V0.0898438Z" fill="white"/>
</mask>
<g mask="url(#mask0_18_1695)">
<path d="M49.8773 36.1733L51.3456 48.572H18.9688L20.1641 36.462L49.8773 36.1733Z" fill="#333333"/>
<path d="M59.8639 61.9714L35.4042 51.2456L14.2239 60.3789L9.84017 59.6859L8.85842 64.9306C8.81467 65.3489 9.14192 65.7129 9.56367 65.7129H62.1844C62.1844 64.0661 61.2657 62.5874 59.8639 61.9714Z" fill="white"/>
<path d="M52.4823 39.9546C52.4823 42.0896 50.8198 43.8221 48.7373 43.9796C46.4623 49.5971 41.1948 53.5346 35.0348 53.5346C28.9273 53.5346 23.6773 49.6496 21.3848 44.0846C19.4073 43.8221 17.8848 42.1421 17.8848 40.0946C17.8848 38.4846 18.8123 37.1196 20.1598 36.4546C20.1598 36.4546 21.4198 36.1746 22.5398 38.4671L24.3773 36.8746L33.5998 28.9121C33.5998 28.9121 39.8123 35.5971 45.9898 36.7346C46.7248 36.8571 47.4773 36.9446 48.1948 36.8921C48.3523 36.8746 48.5273 36.8396 48.6848 36.7696C49.1398 36.5246 49.5073 36.1046 49.8573 36.1746C51.3798 36.7521 52.4823 38.2221 52.4823 39.9546Z" fill="#FFD5B7"/>
<path d="M31.4876 39.8776C32.2946 39.8776 32.9489 39.0925 32.9489 38.1241C32.9489 37.1557 32.2946 36.3706 31.4876 36.3706C30.6806 36.3706 30.0264 37.1557 30.0264 38.1241C30.0264 39.0925 30.6806 39.8776 31.4876 39.8776Z" fill="black"/>
<path d="M39.2034 39.8776C40.0105 39.8776 40.6647 39.0925 40.6647 38.1241C40.6647 37.1557 40.0105 36.3706 39.2034 36.3706C38.3964 36.3706 37.7422 37.1557 37.7422 38.1241C37.7422 39.0925 38.3964 39.8776 39.2034 39.8776Z" fill="black"/>
<path d="M49.6689 65.7147L47.8261 60.2232C47.5549 59.301 48.0816 58.3315 49.0039 58.0602C49.3381 57.9622 49.6794 57.9692 49.9909 58.062L49.5919 56.7057C49.3206 55.7835 49.8474 54.814 50.7696 54.5427C51.2876 54.3905 51.8196 54.4902 52.2344 54.7702C51.9876 53.8375 52.5476 52.8697 53.5014 52.6352C54.4114 52.4112 55.3336 52.973 55.5979 53.8742L55.8044 54.576C55.8621 53.8812 56.3364 53.2582 57.0469 53.05C57.9691 52.7787 58.9386 53.3055 59.2099 54.2277L60.5976 59.7805C60.6151 59.8522 60.6606 59.9135 60.7201 59.9537C60.7656 59.9835 60.8304 59.9607 60.8426 59.9065L61.1366 58.6867C61.3746 57.698 62.3704 57.0907 63.3591 57.3305C64.3479 57.5685 64.9551 58.5642 64.7154 59.553L63.2944 65.7147H49.6654H49.6689Z" fill="#FFD5B7"/>
<path d="M38.5866 54.3309V51.2456H31.7686V54.3309L34.6579 56.4291C34.9676 56.6549 35.3876 56.6549 35.6974 56.4291L38.5866 54.3309Z" fill="#FFD5B7"/>
<path d="M38.3034 45.4761C38.3034 47.0074 37.0609 48.2499 35.5297 48.2499C33.9984 48.2499 32.7559 47.0074 32.7559 45.4761H38.3034Z" fill="#FF7D7D"/>
<path d="M38.8351 54.0018L35.4629 55.6643C35.2914 55.7693 35.0656 55.7693 34.8941 55.6643L31.5219 54.0018C31.1876 53.7988 30.7344 54.0106 30.7344 54.3711V59.1101C30.7344 59.4688 31.1876 59.6823 31.5219 59.4793L34.8941 57.8168C35.0656 57.7118 35.2914 57.7118 35.4629 57.8168L38.8351 59.4793C39.1694 59.6823 39.6226 59.4706 39.6226 59.1101V54.3711C39.6226 54.0123 39.1694 53.7988 38.8351 54.0018Z" fill="#EF4452"/>
<path d="M10.0618 40.2452C12.7322 40.2452 14.8971 38.0804 14.8971 35.41C14.8971 32.7395 12.7322 30.5747 10.0618 30.5747C7.39138 30.5747 5.22656 32.7395 5.22656 35.41C5.22656 38.0804 7.39138 40.2452 10.0618 40.2452Z" fill="#EF4452"/>
<path d="M39.6233 14.1353C42.2938 14.1353 44.4586 11.9705 44.4586 9.30009C44.4586 6.62966 42.2938 4.46484 39.6233 4.46484C36.9529 4.46484 34.7881 6.62966 34.7881 9.30009C34.7881 11.9705 36.9529 14.1353 39.6233 14.1353Z" fill="#5852FF"/>
<path d="M59.347 49.5816C62.0174 49.5816 64.1822 47.4168 64.1822 44.7463C64.1822 42.0759 62.0174 39.9111 59.347 39.9111C56.6765 39.9111 54.5117 42.0759 54.5117 44.7463C54.5117 47.4168 56.6765 49.5816 59.347 49.5816Z" fill="#E9FFF4"/>
<path d="M20.2196 34.4986C20.1531 35.1618 20.1356 35.8145 20.1654 36.4585V36.4621C20.1654 36.4621 21.4254 36.1802 22.5471 38.4675L24.3811 36.882L26.5494 35.0078C24.1379 34.8293 21.9924 34.6176 20.2319 34.4146C20.2284 34.4426 20.2214 34.4706 20.2196 34.4986Z" fill="#333333"/>
<path d="M45.9936 36.7296C46.7321 36.8643 47.4706 36.9361 48.1986 36.8923C48.3491 36.8836 48.5224 36.8346 48.6939 36.7646C49.1401 36.5283 49.5164 36.0978 49.8611 36.1748C49.8664 36.1748 49.8734 36.1731 49.8786 36.1748C49.8874 35.6568 49.8646 35.1441 49.8139 34.6401C47.2186 34.9778 44.5866 35.1913 41.9844 35.3033C43.2794 35.9596 44.6356 36.4828 45.9936 36.7296Z" fill="#333333"/>
<path d="M50.1705 27.2568C48.8527 20.2393 42.7032 14.9263 35.3042 14.9263H35.0522C27.662 14.9263 21.516 20.2271 20.1895 27.2323C20.508 27.2551 34.7565 28.2491 50.1705 27.2568Z" fill="#333333"/>
<path d="M50.4384 29.8924C50.4349 28.9911 50.3526 28.1109 50.2021 27.2551C50.1916 27.2551 50.1811 27.2551 50.1724 27.2551C34.7584 28.2474 20.5099 27.2516 20.1914 27.2289C20.1879 27.2289 20.1616 27.2271 20.1616 27.2271C20.0111 28.0794 19.9271 28.9561 19.9219 29.8521C33.0976 31.7386 44.3746 30.7569 50.4401 29.8906L50.4384 29.8924Z" fill="#BFBFBF"/>
<path d="M53.3167 29.4335C52.5659 29.5682 51.5842 29.7275 50.4379 29.892C44.3724 30.7582 33.0972 31.7382 19.9197 29.8535C18.9642 29.717 18.0017 29.5682 17.0269 29.4002C16.0382 29.2305 15.1387 30.011 15.1387 31.0382V31.523C15.1387 32.7987 16.0574 33.8767 17.2912 34.0465C18.0804 34.155 19.0814 34.2827 20.2312 34.414C21.9917 34.617 24.1372 34.8287 26.5487 35.0072C31.0322 35.338 36.4204 35.5392 41.9837 35.3012C44.5859 35.1892 47.2197 34.9775 49.8132 34.638C50.9419 34.491 52.0637 34.3282 53.1697 34.1305C54.3544 33.917 55.2172 32.8565 55.2172 31.6227V31.0715C55.2172 30.039 54.3089 29.255 53.3167 29.4335Z" fill="#333333"/>
<path d="M23.2917 53.5085C23.6014 52.5985 23.1167 51.608 22.2049 51.2983C21.8742 51.1863 21.5347 51.1793 21.2197 51.258L21.6764 49.9193C21.9862 49.0093 21.5014 48.0188 20.5897 47.709C20.0787 47.534 19.5432 47.611 19.1162 47.8735C19.4014 46.9513 18.8834 45.9625 17.9402 45.686C17.0407 45.4235 16.0957 45.9468 15.7929 46.834L15.5567 47.527C15.5287 46.8288 15.0807 46.1883 14.3807 45.9503C13.4707 45.6405 12.4802 46.1253 12.1704 47.037L10.5482 52.5268C10.5272 52.5968 10.4799 52.6563 10.4169 52.6948C10.3697 52.7228 10.3067 52.6965 10.2962 52.6423L10.0547 51.4103C9.85869 50.4128 8.88919 49.7635 7.89169 49.9613C6.89419 50.1573 6.24494 51.1268 6.44269 52.1243L7.69919 58.7515C8.12794 60.9968 9.83944 63.0145 12.3192 63.8597C15.8664 65.069 19.6394 63.4222 20.7454 60.1777C20.7629 60.1287 20.7752 60.0797 20.7909 60.0307L23.2917 53.5085Z" fill="#FFD5B7"/>
<path d="M22.5723 56.7796L26.1773 55.2256L28.8338 65.7151H24.6653L22.5723 56.7796Z" fill="#EF4452"/>
<path d="M48.0457 56.7796L44.4407 55.2256L41.7842 65.7151H45.9527L48.0457 56.7796Z" fill="#EF4452"/>
</g>
</g>
<defs>
<clipPath id="clip0_18_1695">
<rect width="70" height="70" fill="white" transform="translate(0 0.0898438)"/>
</clipPath>
</defs>
</svg>
