<svg width="20" height="20" viewBox="343 16.7 130.4 130.4" fill="none" xmlns="http://www.w3.org/2000/svg">
  <!-- ONE store mark from https://www.onestorecorp.com/assets/img/onestore/ci_light_new.svg -->
  <path d="M439.9,86c-0.8,0-1.5,0.3-2.1,0.9l-11.2,11c-0.6,0.6-0.9,1.3-0.9,2.1c0,0.8,0.3,1.5,0.9,2.1 c1.1,1.1,3.1,1.2,4.2,0l11.2-11c0.6-0.6,0.9-1.3,0.9-2.1c0-0.8-0.3-1.5-0.9-2.1C441.5,86.4,440.7,86,439.9,86z" fill="white"/>
  <path d="M408.2,16.7c-36,0-65.2,29.2-65.2,65.2c0,36,29.2,65.2,65.2,65.2c36,0,65.2-29.2,65.2-65.2 C473.4,45.9,444.2,16.7,408.2,16.7z M413.6,115.6c0,2.8-2.3,5-5,5c-2.8,0-5-2.3-5-5V59.1l-19.2,18.9c-2,2-5.2,1.9-7.1-0.1 c-2-2-1.9-5.2,0.1-7.1L403.5,45c1.6-1.7,4.1-2.3,6.3-1.4c2.3,0.9,3.8,3,3.8,5.5V115.6z M444.9,94.1l-11.2,11c-1.3,1.3-3.1,2-5,2 c-1.9,0-3.7-0.8-5.1-2.1c-1.3-1.4-2-3.1-2-5c0-1.9,0.8-3.7,2.1-5L435,84c1.3-1.3,3.1-2,5-2c1.9,0,3.7,0.8,5.1,2.1 c1.3,1.4,2,3.1,2,5C447,91,446.3,92.8,444.9,94.1z" fill="white"/>
</svg>
