<svg width="17" height="19" viewBox="0 0 17 19" fill="none" xmlns="http://www.w3.org/2000/svg">
<g clip-path="url(#clip0_18_5100)">
<path d="M16.2684 10.0633L13.3586 11.7268L10.7488 9.10707L13.3794 6.46628L16.2684 8.11781C16.4389 8.2152 16.5807 8.35657 16.6794 8.52748C16.7781 8.69839 16.8301 8.89271 16.8301 9.09057C16.8301 9.28843 16.7781 9.48275 16.6794 9.65366C16.5807 9.82457 16.4389 9.96595 16.2684 10.0633ZM0.913235 0.782688C0.858394 0.917888 0.830149 1.06258 0.830078 1.20869V16.9717C0.830078 17.1344 0.863489 17.2859 0.922145 17.4217L9.20444 9.10632L0.913235 0.782688ZM9.97661 8.33156L12.3956 5.90302L2.48208 0.235928C2.26951 0.1128 2.02211 0.0655122 1.7797 0.101676L9.97661 8.33156ZM9.97661 9.88183L1.8094 18.0817C2.03066 18.1087 2.2638 18.0697 2.48208 17.9444L12.3748 12.2893L9.97661 9.88183Z" fill="white"/>
</g>
<defs>
<clipPath id="clip0_18_5100">
<rect width="16" height="18" fill="white" transform="translate(0.830078 0.0898438)"/>
</clipPath>
</defs>
</svg>
