<svg width="70" height="71" viewBox="0 0 70 71" fill="none" xmlns="http://www.w3.org/2000/svg">
<g clip-path="url(#clip0_18_1646)">
<mask id="mask0_18_1646" style="mask-type:luminance" maskUnits="userSpaceOnUse" x="0" y="0" width="70" height="71">
<path d="M0 0.0898438H70V70.0898H0V0.0898438Z" fill="white"/>
</mask>
<g mask="url(#mask0_18_1646)">
<path d="M36.5137 63.0901H34.2754V49.9581C35.0472 49.8129 35.8084 49.6641 36.5137 49.5469V63.0901Z" fill="#595959"/>
<path d="M36.5138 19.7021V39.2689C36.3055 39.3021 36.0973 39.3371 35.8995 39.3564C35.84 39.3634 35.7823 39.3669 35.7245 39.3721C35.2118 39.4141 34.7323 39.3984 34.2773 39.3389V19.7021H36.5138Z" fill="#595959"/>
<path d="M34.9668 1.94841L35.1173 1.84516C35.3535 1.79266 35.5985 1.79266 35.8225 1.89591L63.7 14.7041C64.9303 15.2694 65.7195 16.4996 65.7195 17.8559V18.5839C65.7195 19.2016 65.219 19.7039 64.5995 19.7039H55.5975V15.7139L34.9668 1.94841Z" fill="#8480F4"/>
<path d="M15.1096 19.7022V15.7122L34.7394 2.10596L25.2334 15.7122V19.7022H6.10936C5.79961 19.7022 5.51961 19.5762 5.31836 19.3732C5.52136 19.5762 5.80136 19.7022 6.10936 19.7022H15.1096Z" fill="#8480F4"/>
<path d="M35.3534 15.712L34.8896 2.00082L34.9404 1.96582L45.4754 15.712V19.702H36.5136H35.3534V15.712Z" fill="#8480F4"/>
<path d="M5.64005 15.3305L34.886 1.89404L34.7373 2.10579L15.1093 15.712V19.702H6.1073C5.79755 19.702 5.51755 19.576 5.3163 19.373C5.1133 19.17 4.9873 18.89 4.9873 18.582V16.349C4.9873 15.9115 5.2428 15.5143 5.64005 15.3305Z" fill="white"/>
<path d="M34.9399 1.96579L34.8892 2.00079L34.8857 1.89404L34.9399 1.96579Z" fill="white"/>
<path d="M34.8857 1.8945C34.9592 1.86125 35.0379 1.86125 35.1167 1.84375L34.9662 1.947L34.8857 1.89275V1.8945Z" fill="white"/>
<path d="M34.7392 2.10579L34.8862 1.89404L34.8897 2.00079L35.3534 15.712V19.702H34.2754H25.2314V15.712L34.7392 2.10579Z" fill="white"/>
<path d="M34.94 1.96579L34.8857 1.89404L34.9662 1.94829L55.597 15.712V19.702H45.475V15.712L34.94 1.96579Z" fill="white"/>
<path d="M29.9129 41.6681C29.9129 42.8266 30.8597 43.7733 32.0182 43.7733H40.0927C41.2494 43.7733 42.1979 42.8266 42.1979 41.6681V38.9731C40.7367 38.7701 38.9727 38.8156 36.8429 39.2198C40.4777 38.5286 43.0799 38.8558 44.8527 39.7536C44.8527 39.7536 44.8124 41.0626 46.1669 40.6461C47.4654 41.8168 48.0062 43.4216 47.9764 45.0263C47.9082 48.7136 49.4797 48.0993 50.7082 49.8756C51.9384 51.6518 50.9812 51.3771 52.4844 54.5201C53.9877 57.6631 56.0352 55.3391 56.7877 58.6186C57.5384 61.8963 55.4892 60.8726 53.4417 59.5741C51.3924 58.2756 50.0274 54.9296 49.0019 53.8533C47.9782 52.7771 45.9972 53.6993 44.2892 53.2898C42.5812 52.8803 41.0114 50.6263 39.7129 49.6008C39.2089 49.2018 37.9874 49.3016 36.5139 49.5466C35.8087 49.6638 35.0474 49.8108 34.2757 49.9578C32.5169 50.2886 30.7144 50.5966 29.4684 50.4216C26.5319 50.0121 25.7829 47.9733 24.6752 47.1736C22.7554 45.7876 22.9042 54.3066 22.3529 57.3043C22.0012 59.2171 21.7247 59.3379 19.9607 59.6949C18.8809 59.9136 18.4697 59.4971 19.5197 56.6096C20.5329 53.8236 19.6999 49.5921 19.1539 47.0651C18.6079 44.5381 19.1662 42.9368 21.6844 39.8341C23.6024 37.4681 22.2987 31.5706 20.3177 33.6181C18.3367 35.6673 17.0399 36.2133 15.6049 35.0531C14.2364 33.9436 15.6889 30.8356 18.8512 27.1098C19.0017 26.9331 19.1347 26.7633 19.2922 26.5831C19.9397 25.8463 20.5487 25.3843 21.1297 25.1533C21.3344 25.0711 21.5374 25.0203 21.7352 24.9941C21.6144 25.2863 21.5462 25.6048 21.5462 25.9408C21.5462 27.3006 22.6487 28.4031 24.0084 28.4031C24.0259 28.4031 24.0434 28.3978 24.0609 28.3978C24.0452 28.4853 24.0084 28.5641 24.0084 28.6568C24.0084 29.5213 24.7084 30.2213 25.5729 30.2213C25.6762 30.2213 25.7654 30.1811 25.8634 30.1636C25.9089 30.6378 26.1242 31.0526 26.4619 31.3483C26.4042 31.4936 26.3674 31.6476 26.3674 31.8138C26.3674 32.4543 26.8452 32.9618 27.4594 33.0563C27.3247 33.2821 27.2249 33.5306 27.2249 33.8123C27.2249 34.6401 27.8969 35.3121 28.7247 35.3121C28.8979 35.3121 29.0572 35.2683 29.2129 35.2141C29.5629 35.8213 29.9129 36.3621 30.2682 36.8258C30.0634 37.1478 29.9129 37.5066 29.9129 37.9161V41.6681Z" fill="white"/>
<path d="M19.2895 26.585C19.132 26.7652 18.999 26.935 18.8485 27.1117L17.634 23.5645C17.5325 23.2687 17.8633 23.0115 18.1258 23.183L21.1288 25.1552C20.5478 25.3862 19.937 25.8482 19.2895 26.585Z" fill="#7B93AC"/>
<path d="M21.543 25.9373C21.543 27.3023 22.6455 28.4048 24.0105 28.4048H24.063C24.0455 28.4923 24.0105 28.5623 24.0105 28.6673C24.0105 29.5248 24.7105 30.2248 25.568 30.2248C25.673 30.2248 25.7605 30.1898 25.8655 30.1723C25.9005 30.6448 26.128 31.0473 26.4605 31.3448C26.408 31.5023 26.373 31.6423 26.373 31.8173C26.373 32.4648 26.8455 32.9723 27.458 33.0598C27.318 33.2873 27.2305 33.5323 27.2305 33.8123C27.2305 34.6348 27.8955 35.3173 28.718 35.3173C28.893 35.3173 29.068 35.2648 29.208 35.2123C29.803 35.0198 30.223 34.4773 30.223 33.8123C30.223 33.0248 29.593 32.3773 28.823 32.3248C28.893 32.1673 28.928 31.9923 28.928 31.8173C28.928 31.6423 28.893 31.5023 28.8405 31.3448C29.208 31.0123 29.4705 30.5398 29.4705 29.9973C29.4705 28.9998 28.648 28.1773 27.6505 28.1773C27.4405 28.1773 27.248 28.2298 27.0555 28.2998C26.933 27.7923 26.6005 27.3898 26.1105 27.1973C26.338 26.8298 26.478 26.4098 26.478 25.9373C26.478 24.5898 25.3755 23.4873 24.0105 23.4873C22.978 23.4873 22.103 24.0998 21.7355 24.9923C21.613 25.2898 21.543 25.6048 21.543 25.9373Z" fill="#7B93AC"/>
<path d="M44.8525 39.7554C44.8525 39.7554 45.5 37.6956 48.1355 37.5136C50.7763 37.3316 51.1508 40.0406 55.0568 40.8369C56.6038 41.1519 58.7458 41.6104 57.4245 42.3401C56.1033 43.0681 54.2255 44.3281 51.8245 43.3866C49.0858 42.3121 47.5248 40.2279 46.1685 40.6461C44.814 41.0626 44.8543 39.7536 44.8543 39.7536L44.8525 39.7554Z" fill="#7B93AC"/>
<path d="M35.7228 39.3718C35.7806 39.3666 35.8401 39.3631 35.8978 39.3561C36.0956 39.3368 36.3056 39.3018 36.5121 39.2686C36.6223 39.2511 36.7273 39.2423 36.8411 39.2213C38.9708 38.8171 40.7331 38.7716 42.1961 38.9746V41.6696C42.1961 42.8281 41.2493 43.7748 40.0908 43.7748H32.0163C30.8578 43.7748 29.9111 42.8281 29.9111 41.6696V37.9176C29.9111 37.5098 30.0616 37.1511 30.2663 36.8273C30.2716 36.8186 30.2751 36.8081 30.2803 36.7993C31.4703 38.3533 32.7286 39.1391 34.2738 39.3386C34.7306 39.3981 35.2101 39.4121 35.7228 39.3718Z" fill="#243D55"/>
<path d="M60.5379 63.0898C61.4952 63.0898 62.2722 63.8668 62.2722 64.8241V66.5583C62.2722 67.5155 61.4952 68.2925 60.5379 68.2925H10.2499C9.29263 68.2925 8.51562 67.5155 8.51562 66.5583V64.8241C8.51562 63.8668 9.29263 63.0898 10.2499 63.0898H60.5379Z" fill="white"/>
</g>
</g>
<defs>
<clipPath id="clip0_18_1646">
<rect width="70" height="70" fill="white" transform="translate(0 0.0898438)"/>
</clipPath>
</defs>
</svg>
