<svg width="70" height="71" viewBox="0 0 70 71" fill="none" xmlns="http://www.w3.org/2000/svg">
<g clip-path="url(#clip0_18_1752)">
<mask id="mask0_18_1752" style="mask-type:luminance" maskUnits="userSpaceOnUse" x="0" y="0" width="70" height="71">
<path d="M70 0.0898438H0V70.0898H70V0.0898438Z" fill="white"/>
</mask>
<g mask="url(#mask0_18_1752)">
<path d="M10.125 35.6846H62.534V59.6442C62.534 61.5449 60.9907 63.0898 59.0884 63.0898H13.5706C11.6699 63.0898 10.125 61.5465 10.125 59.6442V35.6846Z" fill="#333333"/>
<path d="M10.125 29.8525H60.4604C61.6051 29.8525 62.534 30.7814 62.534 31.9261V37.7847C62.534 38.9294 61.6051 39.8583 60.4604 39.8583H12.1986C11.0539 39.8583 10.125 38.9294 10.125 37.7847V29.8525Z" fill="#3D3D3D"/>
<path d="M30.4538 29.8525L20.9355 39.8566H28.2978L37.8161 29.8525H30.4538Z" fill="#F4F4F4"/>
<path d="M16.7544 29.8525L10.125 36.8179V39.8567H14.5984L24.1167 29.8525H16.7544Z" fill="#F4F4F4"/>
<path d="M44.3279 29.8525L34.8096 39.8566H42.1719L51.6918 29.8525H44.3279Z" fill="#F4F4F4"/>
<path d="M60.46 29.8525H58.2019L48.6836 39.8567H56.0459L62.5336 33.0379V31.9245C62.5336 30.7798 61.6047 29.8525 60.46 29.8525Z" fill="#F4F4F4"/>
<path d="M56.1553 7.161L9.53898 19.6521C8.43381 19.9486 7.77664 21.0851 8.07311 22.1919L10.1253 29.8523L58.7461 16.8242C59.8513 16.5277 60.5085 15.3912 60.212 14.2844L58.6967 8.62687C58.4002 7.52171 57.2621 6.86453 56.1553 7.161Z" fill="#3D3D3D"/>
<path d="M29.7615 24.5903L17.9785 17.391L25.0905 15.4854L36.8734 22.6846L29.7615 24.5903Z" fill="#F4F4F4"/>
<path d="M16.5271 28.1362L8.3215 23.1225L8.07115 22.1903C7.77468 21.0852 8.43185 19.947 9.53702 19.6521L11.8544 19.0312L23.6374 26.2304L16.5271 28.1362Z" fill="#F4F4F4"/>
<path d="M43.1625 20.9989L31.3779 13.7997L38.4899 11.894L50.2745 19.0933L43.1625 20.9989Z" fill="#F4F4F4"/>
<path d="M60.7467 16.2874L56.5632 17.4091L44.7803 10.2098L51.8922 8.3042L59.9232 13.2108L60.7467 16.2874Z" fill="#F4F4F4"/>
</g>
</g>
<defs>
<clipPath id="clip0_18_1752">
<rect width="70" height="70" fill="white" transform="translate(0 0.0898438)"/>
</clipPath>
</defs>
</svg>
