<svg width="176" height="40" viewBox="0 0 176 40" fill="none" xmlns="http://www.w3.org/2000/svg">
<path d="M22.0624 13.018V16.2156H26.6663L26.0624 21.4021H22.0624V34.1517H17.2122V21.4021H13.333V16.2156H17.2122V11.6921C17.2122 3.97093 26.6663 6.08226 26.6663 6.08226V10.6058H24.2413C21.5746 10.6262 22.0624 13.018 22.0624 13.018Z" fill="white"/>
<path d="M88.4053 15.876C87.8517 15.875 87.3033 15.9831 86.7914 16.1943C86.2796 16.4055 85.8145 16.7155 85.4227 17.1067C85.0308 17.4978 84.7199 17.9624 84.5078 18.4738C84.2957 18.9852 84.1865 19.5334 84.1865 20.0871C84.1864 20.6405 84.2952 21.1885 84.5069 21.6998C84.7186 22.2111 85.029 22.6757 85.4203 23.067C85.8116 23.4583 86.2762 23.7687 86.7875 23.9804C87.2988 24.1921 87.8468 24.3009 88.4002 24.3008C89.5175 24.3004 90.5889 23.8563 91.3789 23.0662C92.1688 22.276 92.6126 21.2044 92.6126 20.0871C92.6126 18.9709 92.1695 17.9004 91.3806 17.1108C90.5916 16.3211 89.5215 15.877 88.4053 15.876Z" fill="white"/>
<path d="M93.1503 6.74902H82.9473C81.8715 6.74885 80.8062 6.9606 79.8123 7.37217C78.8183 7.78373 77.9152 8.38706 77.1545 9.14769C76.3937 9.90833 75.7902 10.8114 75.3785 11.8052C74.9668 12.7991 74.7549 13.8644 74.7549 14.9402V25.1431C74.7545 26.2191 74.9662 27.2846 75.3778 28.2788C75.7894 29.273 76.3928 30.1763 77.1536 30.9372C77.9143 31.6981 78.8176 32.3017 79.8117 32.7134C80.8058 33.1251 81.8713 33.337 82.9473 33.3368H93.1503C94.2259 33.337 95.291 33.1253 96.2848 32.7138C97.2785 32.3023 98.1815 31.699 98.9422 30.9385C99.7028 30.178 100.306 29.2751 100.718 28.2814C101.129 27.2877 101.341 26.2226 101.341 25.147V14.9402C101.342 13.8644 101.13 12.7992 100.718 11.8053C100.307 10.8115 99.7033 9.90842 98.9426 9.14777C98.182 8.38712 97.2789 7.78377 96.2851 7.37219C95.2912 6.96061 94.226 6.74885 93.1503 6.74902V6.74902ZM88.3999 27.0895C87.4803 27.0896 86.5696 26.9086 85.7199 26.5568C84.8702 26.205 84.0981 25.6892 83.4477 25.039C82.7974 24.3888 82.2815 23.6168 81.9295 22.7672C81.5775 21.9175 81.3964 21.0069 81.3964 20.0872C81.3964 19.1676 81.5775 18.2569 81.9295 17.4073C82.2815 16.5576 82.7974 15.7856 83.4477 15.1354C84.0981 14.4852 84.8702 13.9694 85.7199 13.6176C86.5696 13.2658 87.4803 13.0848 88.3999 13.0849C89.3199 13.0843 90.231 13.2649 91.0811 13.6165C91.9313 13.9681 92.7038 14.4838 93.3546 15.134C94.0053 15.7843 94.5216 16.5565 94.8738 17.4064C95.226 18.2563 95.4073 19.1672 95.4073 20.0872C95.4073 21.9443 94.6696 23.7254 93.3564 25.0386C92.0432 26.3517 90.2622 27.0895 88.405 27.0895H88.3999ZM94.9169 14.7566C94.6831 14.7566 94.4516 14.7105 94.2356 14.621C94.0196 14.5315 93.8234 14.4003 93.6581 14.2349C93.4929 14.0695 93.3618 13.8732 93.2725 13.6572C93.1831 13.4411 93.1372 13.2096 93.1374 12.9758C93.1372 12.742 93.1831 12.5104 93.2725 12.2943C93.3618 12.0782 93.4928 11.8818 93.6581 11.7163C93.8233 11.5508 94.0195 11.4195 94.2355 11.3298C94.4515 11.2402 94.683 11.194 94.9169 11.1938C95.3894 11.1941 95.8425 11.382 96.1766 11.7161C96.5107 12.0502 96.6985 12.5033 96.6989 12.9758C96.6982 13.4472 96.5109 13.8992 96.1779 14.2329C95.845 14.5666 95.3934 14.7549 94.922 14.7566H94.9169Z" fill="white"/>
<path d="M169.333 20.0001C169.333 12.6364 163.364 6.66699 156 6.66699C148.636 6.66699 142.667 12.6364 142.667 20.0001C142.667 25.8453 146.428 30.811 151.661 32.6113C151.98 32.3809 152.348 32.0969 152.348 31.6199C152.348 30.8863 152.332 28.9997 152.332 28.9997C151.867 29.0679 151.397 29.1004 150.927 29.0971C148.845 29.0971 148.186 27.7768 147.874 27.0373C147.465 26.0745 146.94 25.6225 146.376 25.2609C146.031 25.0393 145.952 24.7775 146.351 24.7028C148.193 24.3576 148.664 26.7801 149.894 27.1668C150.773 27.442 151.902 27.3231 152.463 26.9615C152.537 26.222 153.074 25.5817 153.52 25.2446C150.391 24.946 148.536 23.8648 147.572 22.1275L147.469 21.9328L147.227 21.3811L147.156 21.1834C146.855 20.3016 146.721 19.2916 146.721 18.1631C146.721 16.1605 147.349 15.4047 148.191 14.3369C147.547 12.0538 148.425 10.4932 148.425 10.4932C148.425 10.4932 149.779 10.2139 152.34 12.0375C153.727 11.4461 157.427 11.396 159.178 11.9057C160.251 11.1994 162.217 10.1975 163.01 10.478C163.225 10.8215 163.687 11.824 163.291 14.0249C163.56 14.5078 164.959 15.5365 164.964 18.4436C164.942 19.5161 164.829 20.4218 164.621 21.1875L164.505 21.5788C164.505 21.5788 164.439 21.7636 164.366 21.9398L164.281 22.134C163.353 24.1617 161.449 24.9186 158.372 25.2335C159.369 25.8575 159.655 26.6407 159.655 28.76C159.655 30.8793 159.627 31.1638 159.633 31.6514C159.639 32.0823 159.983 32.392 160.293 32.6264C165.552 30.8384 169.333 25.861 169.333 20.0001Z" fill="white"/>
</svg>
