<svg width="70" height="71" viewBox="0 0 70 71" fill="none" xmlns="http://www.w3.org/2000/svg">
<g clip-path="url(#clip0_18_1730)">
<mask id="mask0_18_1730" style="mask-type:luminance" maskUnits="userSpaceOnUse" x="0" y="0" width="70" height="71">
<path d="M70 0.0898438H0V70.0898H70V0.0898438Z" fill="white"/>
</mask>
<g mask="url(#mask0_18_1730)">
<path d="M61.3214 21.2842H48.8054V26.2437C48.8054 38.7545 38.6624 48.8975 26.1516 48.8975C24.6081 48.8975 23.0996 48.74 21.6436 48.446C23.7349 58.7972 32.8786 66.5917 43.8459 66.5917C56.3566 66.5917 66.4996 56.4487 66.4996 43.938V26.4625C66.4996 23.603 64.1809 21.2842 61.3214 21.2842ZM52.7779 53.4632C50.9666 52.8542 47.9356 52.1227 43.8459 52.1227C39.7561 52.1227 36.7251 52.8542 34.9139 53.4632C34.0879 53.7397 33.4491 52.716 34.0634 52.1C35.8694 50.287 39.6669 48.7242 43.8459 48.7242C48.0249 48.7242 51.8241 50.287 53.6284 52.1C54.2426 52.7177 53.6039 53.7415 52.7779 53.4632ZM54.5629 41.4635C53.8226 41.0977 52.5626 40.6375 50.9054 40.6375C49.2481 40.6375 47.9881 41.0977 47.2479 41.4635C46.9084 41.6315 46.5199 41.3375 46.5951 40.9665C47.0134 38.9085 48.7844 37.3632 50.9054 37.3632C53.0264 37.3632 54.7974 38.9085 55.2156 40.9665C55.2909 41.3375 54.9006 41.6297 54.5629 41.4635Z" fill="#C2C0FD"/>
<path d="M43.8465 48.7227C39.6675 48.7227 35.8683 50.2854 34.064 52.0984C33.4498 52.7162 34.0885 53.7399 34.9145 53.4617C36.7258 52.8527 39.7568 52.1212 43.8465 52.1212C47.9363 52.1212 50.9673 52.8527 52.7785 53.4617C53.6045 53.7382 54.2433 52.7144 53.629 52.0984C51.823 50.2854 48.0255 48.7227 43.8465 48.7227Z" fill="#7772FF"/>
<path d="M48.8057 26.2435V8.76809C48.8057 5.90859 46.487 3.58984 43.6275 3.58984H8.67825C5.81875 3.58984 3.5 5.90859 3.5 8.76809V26.2435C3.5 37.2108 11.2945 46.3545 21.6458 48.4458C23.1035 48.7398 24.6102 48.8973 26.1537 48.8973C38.6645 48.8973 48.8057 38.7543 48.8057 26.2435ZM33.2133 19.6688C35.3343 19.6688 37.1052 21.214 37.5235 23.272C37.5987 23.643 37.2085 23.9353 36.8708 23.7691C36.1305 23.4033 34.8705 22.9431 33.2133 22.9431C31.556 22.9431 30.296 23.4033 29.5557 23.7691C29.2162 23.9371 28.8278 23.643 28.903 23.272C29.3213 21.214 31.0923 19.6688 33.2133 19.6688ZM14.7822 23.272C15.2005 21.214 16.9715 19.6688 19.0925 19.6688C21.2135 19.6688 22.9845 21.214 23.4028 23.272C23.478 23.643 23.0878 23.9353 22.75 23.7691C22.0097 23.4033 20.7497 22.9431 19.0925 22.9431C17.4352 22.9431 16.1752 23.4033 15.435 23.7691C15.0955 23.9371 14.707 23.643 14.7822 23.272ZM16.3695 32.4403C15.7553 31.8226 16.394 30.7988 17.22 31.0771C19.0313 31.6861 22.0623 32.4175 26.152 32.4175C30.2418 32.4175 33.2728 31.6861 35.084 31.0771C35.91 30.8006 36.5488 31.8243 35.9345 32.4403C34.1285 34.2533 30.331 35.8161 26.152 35.8161C21.973 35.8161 18.1738 34.2533 16.3695 32.4403Z" fill="white"/>
<path d="M50.9076 37.3613C48.7866 37.3613 47.0156 38.9065 46.5973 40.9645C46.5221 41.3355 46.9123 41.6278 47.2501 41.4615C47.9903 41.0958 49.2503 40.6355 50.9076 40.6355C52.5648 40.6355 53.8248 41.0958 54.5651 41.4615C54.9046 41.6295 55.2931 41.3355 55.2178 40.9645C54.7996 38.9065 53.0286 37.3613 50.9076 37.3613Z" fill="black"/>
<path d="M22.7506 23.7692C23.0901 23.9372 23.4786 23.6432 23.4034 23.2722C22.9851 21.2142 21.2141 19.6689 19.0931 19.6689C16.9721 19.6689 15.2011 21.2142 14.7829 23.2722C14.7076 23.6432 15.0979 23.9354 15.4356 23.7692C16.1759 23.4034 17.4359 22.9432 19.0931 22.9432C20.7504 22.9432 22.0104 23.4034 22.7506 23.7692Z" fill="black"/>
<path d="M28.903 23.2722C28.8277 23.6432 29.218 23.9354 29.5557 23.7692C30.296 23.4034 31.556 22.9432 33.2132 22.9432C34.8705 22.9432 36.1305 23.4034 36.8707 23.7692C37.2102 23.9372 37.5987 23.6432 37.5235 23.2722C37.1052 21.2142 35.3342 19.6689 33.2132 19.6689C31.0922 19.6689 29.3212 21.2142 28.903 23.2722Z" fill="black"/>
<path d="M35.0851 31.0752C33.2739 31.6842 30.2429 32.4157 26.1531 32.4157C22.0634 32.4157 19.0324 31.6842 17.2211 31.0752C16.3951 30.7987 15.7564 31.8225 16.3706 32.4385C18.1766 34.2515 21.9741 35.8142 26.1531 35.8142C30.3321 35.8142 34.1314 34.2515 35.9356 32.4385C36.5499 31.8207 35.9111 30.797 35.0851 31.0752Z" fill="#FB6250"/>
</g>
</g>
<defs>
<clipPath id="clip0_18_1730">
<rect width="70" height="70" fill="white" transform="translate(0 0.0898438)"/>
</clipPath>
</defs>
</svg>
