<svg width="21" height="21" viewBox="0 0 21 21" fill="none" xmlns="http://www.w3.org/2000/svg">
<path d="M12.2899 15.9648L9.12121 19.1348C8.18313 20.0729 6.91015 20.6004 5.58353 20.6006C4.25669 20.6006 2.98407 20.073 2.04585 19.1348C1.10779 18.1967 0.580242 16.925 0.580078 15.5984C0.580078 14.2716 1.10764 12.9989 2.04585 12.0607L5.21583 8.89073L6.5787 10.2548L3.40872 13.4236C2.832 14.0003 2.50767 14.7828 2.50767 15.5984C2.50783 16.4138 2.83215 17.1954 3.40872 17.7719C3.98544 18.3487 4.76792 18.673 5.58353 18.673C6.39892 18.6728 7.18051 18.3485 7.75709 17.7719L10.9258 14.602L12.2899 15.9648ZM14.0832 8.45777L8.43727 14.105L7.0744 12.7421L12.7204 7.09491L14.0832 8.45777ZM18.6525 5.60278C18.6525 5.19903 18.5736 4.79866 18.4191 4.42565C18.2646 4.05271 18.0369 3.71467 17.7514 3.42922C17.466 3.14378 17.128 2.9161 16.755 2.7616C16.382 2.60709 15.9816 2.52818 15.5779 2.52818C14.7625 2.52821 13.9809 2.85267 13.4043 3.42922L10.2331 6.59795L8.87022 5.23508L12.0415 2.0651C12.9795 1.12738 14.2515 0.600623 15.5779 0.600586C16.2345 0.600586 16.885 0.729637 17.4917 0.980833C18.0985 1.23221 18.6511 1.60062 19.1156 2.0651C19.58 2.52959 19.9485 3.08211 20.1998 3.689C20.451 4.2957 20.5801 4.94612 20.5801 5.60278C20.5801 6.25947 20.4511 6.90985 20.1998 7.51657C19.9485 8.12323 19.5798 8.67482 19.1156 9.13921L15.9456 12.3104L14.5827 10.9476L17.7514 7.77634C18.0369 7.49085 18.2646 7.15168 18.4191 6.77866C18.5734 6.40588 18.6525 6.00625 18.6525 5.60278Z" fill="white"/>
</svg>
