<svg width="48" height="48" viewBox="0 0 48 48" fill="none" xmlns="http://www.w3.org/2000/svg">
<g clip-path="url(#clip0_73_613)">
<circle cx="24" cy="24" r="24" fill="url(#paint0_linear_73_613)"/>
<path d="M23.8077 22.3735H18.475L13.5996 12.6655C13.6118 12.6533 13.6265 12.6436 13.6387 12.6315C14.2916 12.2607 15.0495 12.0449 15.8564 12.0449C16.6828 12.0449 17.453 12.2679 18.1181 12.6533C18.8247 13.0654 19.4066 13.6641 19.7954 14.3816L23.8077 22.3735Z" fill="white"/>
<path d="M35.255 12.6533V12.6558L23.0249 37.1573C22.6361 37.8748 22.0517 38.471 21.3451 38.8831C20.6825 39.271 19.9099 39.4915 19.0859 39.4915C18.4306 39.4915 17.812 39.3509 17.2521 39.1013C17.1078 39.031 16.966 38.9583 16.8242 38.8831L29.0543 14.3816C29.4431 13.6641 30.025 13.0654 30.7341 12.6533C31.3967 12.2679 32.1693 12.0449 32.9933 12.0449C33.0789 12.0449 33.1669 12.0473 33.2525 12.0522C33.321 12.057 33.387 12.0619 33.4505 12.0692C33.5361 12.0764 33.6217 12.0886 33.7073 12.1007C33.7708 12.1128 33.8344 12.1225 33.8955 12.137C34.0031 12.1588 34.1107 12.1831 34.2158 12.2146C34.2867 12.234 34.3577 12.2558 34.4261 12.28C34.4457 12.2849 34.4677 12.2922 34.4897 12.3019C34.5728 12.3285 34.656 12.3625 34.7366 12.3964C34.9127 12.4715 35.0838 12.5564 35.2501 12.6533H35.255Z" fill="white"/>
</g>
<defs>
<linearGradient id="paint0_linear_73_613" x1="52.1053" y1="48" x2="4.73685" y2="3.42496e-06" gradientUnits="userSpaceOnUse">
<stop stop-color="#FA6027"/>
<stop offset="1" stop-color="#FFD74B"/>
</linearGradient>
<clipPath id="clip0_73_613">
<rect width="48" height="48" fill="white"/>
</clipPath>
</defs>
</svg>
