<svg width="62" height="49" viewBox="0 0 62 49" fill="none" xmlns="http://www.w3.org/2000/svg">
<g clip-path="url(#clip0_6510_4621)">
<path d="M50.256 8.43189C49.7094 10.3392 48.9169 11.9788 47.9143 13.04C46.9116 14.1013 45.6987 14.5838 44.3115 14.1768C42.8201 13.7394 42.0506 12.6757 41.7907 11.2445C41.5308 9.81325 41.7808 8.01452 42.3278 6.10718C42.8747 4.19981 43.6385 2.5517 44.6271 1.48656C45.6156 0.421419 46.8281 -0.0611186 48.2728 0.362304C49.6598 0.768988 50.4296 1.83271 50.7153 3.27142C51.0015 4.71012 50.8031 6.52454 50.256 8.43189Z" fill="#3C3C3C"/>
<path d="M11.7594 8.22243C12.3064 10.1298 13.0987 11.7694 14.1014 12.8306C15.104 13.8918 16.3169 14.3743 17.7041 13.9673C19.1956 13.53 19.9651 12.4663 20.225 11.035C20.4849 9.60379 20.2348 7.80506 19.6879 5.89767C19.141 3.99034 18.3771 2.34223 17.3886 1.27709C16.4 0.211946 15.1875 -0.270591 13.7429 0.152831C12.3557 0.559517 11.5862 1.62323 11.3003 3.06195C11.0143 4.50065 11.2129 6.31509 11.7594 8.22243Z" fill="#3C3C3C"/>
<path d="M30.889 5.71582C23.7392 5.71582 16.0171 7.03845 10.0823 10.3752C4.14753 13.7121 0 19.0641 0 27.1223C0 34.9985 3.65554 40.3499 9.34454 43.7327C15.0335 47.1154 22.7556 48.5288 30.889 48.5288C40.2088 48.5288 47.9313 46.7906 53.3235 43.2458C58.7155 39.701 61.7778 34.3494 61.7778 27.122C61.7778 18.7732 57.9864 13.4215 52.2288 10.157C46.4715 6.89245 38.7498 5.71582 30.889 5.71582Z" fill="#FF8038"/>
<path d="M23.8732 20.3656C24.8705 19.6819 26.1803 19.6807 27.1766 20.3632L29.9172 22.2405C30.7718 22.8258 30.8382 24.0711 30.0509 24.7475L27.1079 27.2755C26.1925 28.0617 24.8471 28.0625 23.9328 27.2775L20.9931 24.7534C20.2066 24.0781 20.2744 22.8328 21.1297 22.2464L23.8732 20.3656Z" fill="#FFFCD5"/>
<path d="M23.8732 20.3656C24.8705 19.6819 26.1803 19.6807 27.1766 20.3632L29.9172 22.2405C30.7718 22.8258 30.8382 24.0711 30.0509 24.7475L27.1079 27.2755C26.1925 28.0617 24.8471 28.0625 23.9328 27.2775L20.9931 24.7534C20.2066 24.0781 20.2744 22.8328 21.1297 22.2464L23.8732 20.3656Z" fill="#FFFCD5"/>
<path fill-rule="evenodd" clip-rule="evenodd" d="M12.8414 23.4223C12.8161 23.3175 12.7349 23.2357 12.631 23.2101L10.5077 22.6889C10.2162 22.6173 10.2162 22.1996 10.5077 22.128L12.631 21.6067C12.735 21.5812 12.8161 21.4994 12.8415 21.3946L13.3588 19.2545C13.4299 18.9608 13.8444 18.9608 13.9154 19.2545L14.4327 21.3944C14.4581 21.4992 14.5393 21.581 14.6432 21.6065L16.7673 22.128C17.0588 22.1996 17.0588 22.6173 16.7673 22.6889L14.6432 23.2103C14.5393 23.2359 14.4581 23.3177 14.4328 23.4224L13.9154 25.5625C13.8444 25.8563 13.4299 25.8563 13.3588 25.5625L12.8414 23.4223Z" fill="white"/>
<path fill-rule="evenodd" clip-rule="evenodd" d="M36.5817 23.4223C36.5564 23.3175 36.4752 23.2357 36.3712 23.2101L34.2479 22.6889C33.9564 22.6173 33.9564 22.1996 34.2479 22.128L36.3712 21.6067C36.4752 21.5812 36.5564 21.4994 36.5817 21.3946L37.0991 19.2545C37.1701 18.9608 37.5846 18.9608 37.6556 19.2545L38.173 21.3944C38.1983 21.4992 38.2795 21.581 38.3835 21.6065L40.5075 22.128C40.7989 22.1996 40.7989 22.6173 40.5075 22.6889L38.3835 23.2103C38.2795 23.2359 38.1983 23.3177 38.173 23.4224L37.6556 25.5625C37.5846 25.8563 37.1701 25.8563 37.0991 25.5625L36.5817 23.4223Z" fill="white"/>
</g>
<defs>
<clipPath id="clip0_6510_4621">
<rect width="62" height="48.9844" fill="white"/>
</clipPath>
</defs>
</svg>
