<svg width="38" height="28" viewBox="0 0 38 28" fill="none" xmlns="http://www.w3.org/2000/svg">
<g clip-path="url(#clip0_18_4237)">
<path d="M6.17331 4.89658C6.46634 5.91667 6.89085 6.79353 7.428 7.36112C7.96519 7.92868 8.61499 8.18676 9.35819 7.96905C10.1572 7.73516 10.5695 7.16626 10.7087 6.40083C10.848 5.63536 10.714 4.67336 10.421 3.65324C10.128 2.63315 9.71874 1.75171 9.18913 1.18204C8.65952 0.612377 8.00988 0.354305 7.23593 0.580761C6.49273 0.798266 6.08049 1.36717 5.92727 2.13662C5.77407 2.90608 5.88029 3.87646 6.17331 4.89658Z" fill="#3C3C3C"/>
<path d="M26.7979 4.7872C26.5047 5.80729 26.0802 6.68418 25.543 7.25174C25.0059 7.8193 24.3561 8.07738 23.6129 7.85969C22.8138 7.62581 22.4016 7.05691 22.2623 6.29145C22.1231 5.52598 22.257 4.56398 22.5501 3.54386C22.8431 2.52378 23.2523 1.64233 23.7819 1.07267C24.3116 0.503002 24.9612 0.24493 25.7351 0.471386C26.4783 0.688891 26.8906 1.25779 27.0437 2.02725C27.197 2.7967 27.0907 3.76711 26.7979 4.7872Z" fill="#3C3C3C"/>
<path d="M16.5489 4.48828C20.3794 4.48828 24.5166 5.19565 27.6963 6.98025C30.8758 8.76487 33.0979 11.6273 33.0979 15.937C33.0979 20.1494 31.1394 23.0114 28.0914 24.8206C25.0436 26.6298 20.9064 27.3857 16.5489 27.3857C11.5558 27.3857 7.41844 26.4561 4.52958 24.5602C1.64074 22.6644 0 19.8022 0 15.9368C0 11.4717 2.03149 8.60944 5.11598 6.86351C8.20049 5.11757 12.3374 4.48828 16.5489 4.48828Z" fill="#8480F4"/>
<path d="M17.3863 13.4202C16.852 13.0545 16.1502 13.0539 15.6164 13.4189L14.1481 14.4229C13.6903 14.736 13.6547 15.402 14.0765 15.7637L15.6533 17.1157C16.1437 17.5362 16.8645 17.5367 17.3543 17.1168L18.9293 15.7668C19.3506 15.4057 19.3143 14.7397 18.8561 14.426L17.3863 13.4202Z" fill="#FFFCD5"/>
<path d="M21.5859 15.2774C21.5859 15.6434 21.7333 15.9746 21.9718 16.2144C22.2103 16.4542 22.5395 16.6026 22.9033 16.6026C23.2671 16.6026 23.5963 16.4542 23.8348 16.2144C24.0733 15.9746 24.2206 15.6432 24.2206 15.2774C24.2206 14.9115 24.0733 14.5801 23.8348 14.3403C23.5965 14.1005 23.2671 13.9521 22.9033 13.9521C22.5395 13.9521 22.2103 14.1005 21.9718 14.3403C21.7335 14.5801 21.5859 14.9115 21.5859 15.2774Z" fill="white"/>
<path d="M8.59159 14.0791L10.5576 14.9319C10.8877 15.0751 10.8115 15.5664 10.4537 15.6016L8.31055 15.8124" stroke="white" stroke-width="0.697904" stroke-linecap="round" stroke-linejoin="round"/>
<path d="M36.5687 6.57658C37.2751 6.06991 37.4395 5.08313 36.936 4.37255C36.4324 3.662 35.4516 3.49692 34.7453 4.00348L34.745 4.00305L34.7447 4.00321L34.7445 4.00278C34.2406 3.29226 33.2598 3.12686 32.5535 3.63347C31.8472 4.14011 31.6829 5.12689 32.1862 5.8375C32.1884 5.84023 32.1905 5.84293 32.1924 5.84563L34.0108 8.4113L36.5687 6.57658Z" fill="white"/>
</g>
<defs>
<clipPath id="clip0_18_4237">
<rect width="38" height="27" fill="white" transform="translate(0 0.389648)"/>
</clipPath>
</defs>
</svg>
