<svg width="34" height="28" viewBox="0 0 34 28" fill="none" xmlns="http://www.w3.org/2000/svg">
<g clip-path="url(#clip0_18_4257)">
<path d="M25.5187 5.8532C25.2412 6.82517 24.8388 7.6607 24.3297 8.20149C23.8206 8.74228 23.2047 8.98818 22.5004 8.78076C21.7431 8.55791 21.3523 8.01585 21.2204 7.28649C21.0884 6.55714 21.2154 5.64051 21.4931 4.66854C21.7708 3.69654 22.1586 2.85668 22.6606 2.31388C23.1625 1.77109 23.7782 1.52519 24.5117 1.74097C25.216 1.94821 25.6069 2.49028 25.752 3.22345C25.8973 3.9566 25.7965 4.88123 25.5187 5.8532Z" fill="#3C3C3C"/>
<path d="M5.97123 5.74579C6.24892 6.71776 6.65128 7.55328 7.16037 8.09407C7.66949 8.63486 8.28534 8.88077 8.98972 8.67335C9.74702 8.4505 10.1377 7.90841 10.2697 7.17908C10.4017 6.44972 10.2747 5.5331 9.99701 4.5611C9.71931 3.58912 9.33144 2.74926 8.8295 2.20646C8.32755 1.66367 7.71185 1.41777 6.97833 1.63355C6.27396 1.84079 5.88323 2.38286 5.73804 3.11601C5.59285 3.84919 5.69369 4.77379 5.97123 5.74579Z" fill="#3C3C3C"/>
<path d="M15.6844 5.46973C12.054 5.46973 8.13295 6.14371 5.11947 7.84415C2.10597 9.54456 0 12.272 0 16.3784C0 20.3921 1.85616 23.1191 4.74484 24.8429C7.6335 26.5667 11.5545 27.287 15.6844 27.287C20.4167 27.287 24.3379 26.4014 27.0758 24.5949C29.8137 22.7885 31.3687 20.0612 31.3687 16.3782C31.3687 12.1237 29.4435 9.39649 26.52 7.73289C23.5967 6.06931 19.6758 5.46973 15.6844 5.46973Z" fill="white"/>
<path d="M10.9541 13.7774C10.9541 14.1262 10.8144 14.4417 10.5884 14.6702C10.3624 14.8987 10.0503 15.0401 9.70556 15.0401C9.3608 15.0401 9.04876 14.8987 8.82272 14.6702C8.59671 14.4417 8.45703 14.126 8.45703 13.7774C8.45703 13.4288 8.59671 13.113 8.82272 12.8845C9.04858 12.656 9.3608 12.5146 9.70556 12.5146C10.0503 12.5146 10.3624 12.656 10.5884 12.8845C10.8142 13.113 10.9541 13.4288 10.9541 13.7774Z" fill="#3C3C3C"/>
<path d="M22.999 13.7774C22.999 14.1262 22.8594 14.4417 22.6333 14.6702C22.4075 14.8987 22.0953 15.0401 21.7505 15.0401C21.4057 15.0401 21.0937 14.8987 20.8677 14.6702C20.6418 14.4417 20.502 14.126 20.502 13.7774C20.502 13.4288 20.6416 13.113 20.8677 12.8845C21.0935 12.656 21.4057 12.5146 21.7505 12.5146C22.0953 12.5146 22.4073 12.656 22.6333 12.8845C22.8594 13.113 22.999 13.4288 22.999 13.7774Z" fill="#3C3C3C"/>
<path d="M14.892 12.7969C15.3983 12.4484 16.0634 12.4478 16.5693 12.7956L17.9609 13.7523C18.3948 14.0506 18.4285 14.6852 18.0288 15.0299L16.5344 16.3181C16.0696 16.7188 15.3865 16.7192 14.9222 16.3191L13.4295 15.0328C13.0302 14.6887 13.0646 14.0542 13.4989 13.7553L14.892 12.7969Z" fill="#FB6250"/>
<path d="M32.2684 5.82943L31.0497 5.44338L32.4377 0.521484L33.9042 0.985943L32.2684 5.82943ZM30.4453 6.75362C30.4868 6.60815 30.5614 6.4855 30.6689 6.38563C30.7807 6.28354 30.9094 6.2168 31.055 6.1854C31.2008 6.15396 31.3466 6.16138 31.4925 6.20763C31.6322 6.25185 31.7514 6.32839 31.8501 6.43721C31.9491 6.54605 32.0156 6.67461 32.0496 6.82293C32.0848 6.96804 32.08 7.11282 32.0355 7.2573C31.9896 7.40496 31.911 7.52982 31.7992 7.63191C31.6884 7.73076 31.5612 7.79801 31.4179 7.83364C31.2754 7.86607 31.1343 7.86016 30.9946 7.81594C30.8485 7.76969 30.7246 7.69164 30.6228 7.58181C30.5218 7.46879 30.4536 7.3397 30.4186 7.19459C30.3873 7.04728 30.3964 6.90029 30.4453 6.75362Z" fill="#FB6250"/>
</g>
<defs>
<clipPath id="clip0_18_4257">
<rect width="34" height="27" fill="white" transform="translate(0 0.389648)"/>
</clipPath>
</defs>
</svg>
