<svg width="76" height="54" viewBox="0 0 76 54" fill="none" xmlns="http://www.w3.org/2000/svg">
<g clip-path="url(#clip0_6510_4646)">
<path d="M12.3466 9.01386C12.9327 11.054 13.7817 12.8078 14.856 13.9429C15.9304 15.0781 17.23 15.5942 18.7164 15.1588C20.3145 14.691 21.139 13.5532 21.4175 12.0224C21.696 10.4914 21.428 8.56743 20.842 6.52719C20.256 4.48701 19.4375 2.72411 18.3783 1.58478C17.319 0.445458 16.0198 -0.0706871 14.4719 0.382225C12.9855 0.817236 12.161 1.95504 11.8545 3.49395C11.5481 5.03286 11.7606 6.97363 12.3466 9.01386Z" fill="#3C3C3C"/>
<path d="M53.5977 8.7951C53.0114 10.8353 52.1624 12.5891 51.088 13.7242C50.0137 14.8593 48.7141 15.3755 47.2277 14.9401C45.6296 14.4723 44.8051 13.3345 44.5266 11.8036C44.2481 10.2727 44.516 8.34867 45.1021 6.30843C45.6881 4.26826 46.5066 2.50536 47.5658 1.36603C48.6251 0.226708 49.9243 -0.289437 51.4722 0.163475C52.9586 0.598486 53.7832 1.73629 54.0893 3.2752C54.396 4.81411 54.1834 6.75492 53.5977 8.7951Z" fill="#3C3C3C"/>
<path d="M33.0978 8.19775C40.7589 8.19775 49.0331 9.6125 55.3926 13.1817C61.7516 16.7509 66.1958 22.4757 66.1958 31.0951C66.1958 39.5199 62.2788 45.244 56.1829 48.8624C50.0871 52.4807 41.8128 53.9927 33.0978 53.9927C23.1115 53.9927 14.8369 52.1333 9.05917 48.3416C3.28147 44.55 0 38.8255 0 31.0948C0 22.1645 4.06298 16.4401 10.232 12.9482C16.401 9.45633 24.6749 8.19775 33.0978 8.19775Z" fill="#48ADEC"/>
<path d="M34.7725 26.0615C33.704 25.3302 32.3005 25.3289 31.2328 26.0589L28.2963 28.067C27.3806 28.6931 27.3095 30.0251 28.153 30.7486L31.3066 33.4527C32.2873 34.2936 33.7289 34.2945 34.7087 33.4548L37.8586 30.7549C38.7013 30.0326 38.6286 28.7006 37.7122 28.0733L34.7725 26.0615Z" fill="#FFE97B"/>
<path d="M43.1719 29.7754C43.1719 30.5075 43.4666 31.17 43.9436 31.6496C44.4206 32.1291 45.0791 32.4259 45.8066 32.4259C46.5341 32.4259 47.1926 32.1291 47.6696 31.6496C48.1466 31.17 48.4413 30.5072 48.4413 29.7754C48.4413 29.0437 48.1466 28.3809 47.6696 27.9013C47.193 27.4217 46.5341 27.125 45.8066 27.125C45.0791 27.125 44.4206 27.4217 43.9436 27.9013C43.467 28.3809 43.1719 29.0437 43.1719 29.7754Z" fill="#FFE97B"/>
<path d="M17.1832 27.3789L21.1152 29.0845C21.7754 29.3708 21.6229 30.3535 20.9074 30.4239L16.6211 30.8455" stroke="#FFE97B" stroke-width="1.39581" stroke-linecap="round" stroke-linejoin="round"/>
<path d="M73.1355 12.3743C74.5482 11.361 74.8771 9.38745 73.87 7.96629C72.8629 6.54518 70.9012 6.21503 69.4886 7.22815L69.488 7.22729L69.4875 7.22761L69.487 7.22676C68.4793 5.8057 66.5177 5.47491 65.105 6.48814C63.6924 7.50141 63.3639 9.47498 64.3705 10.8962C64.3748 10.9016 64.379 10.907 64.3828 10.9124L68.0196 16.0438L73.1355 12.3743Z" fill="#181B1F"/>
</g>
<defs>
<clipPath id="clip0_6510_4646">
<rect width="76" height="54" fill="white"/>
</clipPath>
</defs>
</svg>
