<svg width="20" height="26" viewBox="0 0 20 26" fill="none" xmlns="http://www.w3.org/2000/svg">
<path d="M9.42766 9.78416H4.5027L0 0.58783C0.0112906 0.576349 0.0248394 0.567164 0.03613 0.555683C0.639049 0.204363 1.33907 0 2.08425 0C2.84749 0 3.5588 0.211251 4.17301 0.576349C4.82561 0.966705 5.36304 1.53387 5.72208 2.21355L9.42766 9.78416Z" fill="white"/>
<path d="M20.0002 0.576349V0.578645L8.70512 23.7887C8.34608 24.4684 7.80638 25.0333 7.15379 25.4237C6.54183 25.791 5.82827 26 5.06728 26C4.4621 26 3.8908 25.8668 3.37369 25.6303C3.24046 25.5637 3.10949 25.4948 2.97852 25.4237L14.2736 2.21355C14.6327 1.53387 15.1701 0.966705 15.825 0.576349C16.4369 0.211251 17.1505 0 17.9115 0C17.9905 0 18.0718 0.00229621 18.1508 0.00688863C18.2141 0.0114811 18.275 0.0160735 18.3338 0.0229621C18.4128 0.0298507 18.4918 0.0413318 18.5709 0.0528129C18.6296 0.0642939 18.6883 0.0734788 18.7447 0.087256C18.8441 0.107922 18.9434 0.130884 19.0405 0.160735C19.106 0.179104 19.1715 0.19977 19.2347 0.222732C19.2528 0.227325 19.2731 0.234214 19.2935 0.243398C19.3702 0.268657 19.447 0.300804 19.5215 0.332951C19.6841 0.404133 19.8422 0.484501 19.9957 0.576349H20.0002Z" fill="white"/>
</svg>
