<svg width="68" height="54" viewBox="0 0 68 54" fill="none" xmlns="http://www.w3.org/2000/svg">
<g clip-path="url(#clip0_6510_4666)">
<path d="M51.0355 10.9271C50.4805 12.8711 49.6756 14.5421 48.6575 15.6237C47.6393 16.7053 46.4075 17.1971 44.9988 16.7822C43.4842 16.3365 42.7027 15.2524 42.4388 13.7937C42.1748 12.335 42.4288 10.5017 42.9842 8.55778C43.5396 6.61378 44.3153 4.93406 45.3192 3.84847C46.3231 2.76289 47.5545 2.27109 49.0215 2.70264C50.4301 3.11713 51.2118 4.20127 51.502 5.66761C51.7926 7.13391 51.5911 8.98315 51.0355 10.9271Z" fill="#3C3C3C"/>
<path d="M11.9405 10.7133C12.4959 12.6572 13.3006 14.3282 14.3188 15.4098C15.337 16.4914 16.5687 16.9832 17.9775 16.5684C19.4921 16.1227 20.2735 15.0385 20.5375 13.5798C20.8014 12.1211 20.5475 10.2879 19.9921 8.34387C19.4367 6.39992 18.6609 4.72019 17.657 3.63461C16.6532 2.54902 15.4218 2.05722 13.9547 2.48877C12.546 2.90326 11.7645 3.98739 11.4741 5.4537C11.1837 6.92006 11.3854 8.76925 11.9405 10.7133Z" fill="#3C3C3C"/>
<path d="M31.3688 10.1597C24.1079 10.1597 16.2659 11.5076 10.2389 14.9085C4.21194 18.3093 0 23.7642 0 31.977C0 40.0043 3.71232 45.4585 9.48968 48.9061C15.267 52.3536 23.109 53.7943 31.3688 53.7943C40.8333 53.7943 48.6757 52.023 54.1517 48.41C59.6274 44.7972 62.7373 39.3427 62.7373 31.9766C62.7373 23.4676 58.887 18.0132 53.04 14.686C47.1933 11.3588 39.3517 10.1597 31.3688 10.1597Z" fill="#FFE97B"/>
<path d="M21.9082 26.7749C21.9082 27.4725 21.6289 28.1037 21.1768 28.5606C20.7247 29.0176 20.1006 29.3003 19.4111 29.3003C18.7216 29.3003 18.0975 29.0176 17.6454 28.5606C17.1934 28.1037 16.9141 27.4722 16.9141 26.7749C16.9141 26.0777 17.1934 25.4462 17.6454 24.9892C18.0972 24.5322 18.7216 24.2495 19.4111 24.2495C20.1006 24.2495 20.7247 24.5322 21.1768 24.9892C21.6285 25.4462 21.9082 26.0777 21.9082 26.7749Z" fill="#48ADEC"/>
<path d="M45.998 26.7749C45.998 27.4725 45.7187 28.1037 45.2667 28.5606C44.815 29.0176 44.1905 29.3003 43.501 29.3003C42.8114 29.3003 42.1874 29.0176 41.7353 28.5606C41.2836 28.1037 41.0039 27.4722 41.0039 26.7749C41.0039 26.0777 41.2833 25.4462 41.7353 24.9892C42.187 24.5322 42.8114 24.2495 43.501 24.2495C44.1905 24.2495 44.8146 24.5322 45.2667 24.9892C45.7187 25.4462 45.998 26.0777 45.998 26.7749Z" fill="#48ADEC"/>
<path d="M29.7819 24.8154C30.7947 24.1185 32.1248 24.1173 33.1367 24.8129L35.9198 26.7263C36.7877 27.3229 36.8551 28.5921 36.0556 29.2814L33.0669 31.8579C32.1373 32.6592 30.771 32.66 29.8424 31.86L26.8571 29.2874C26.0584 28.5991 26.1273 27.33 26.9958 26.7323L29.7819 24.8154Z" fill="#48ADEC"/>
<path d="M64.5349 10.8796L62.0975 10.1075L64.8734 0.263672L67.8065 1.19259L64.5349 10.8796ZM60.8886 12.7279C60.9717 12.437 61.1208 12.1917 61.3359 11.992C61.5595 11.7878 61.8169 11.6543 62.1081 11.5915C62.3997 11.5286 62.6913 11.5435 62.983 11.636C63.2625 11.7244 63.5008 11.8775 63.6982 12.0951C63.8962 12.3128 64.0292 12.5699 64.0972 12.8666C64.1677 13.1568 64.1581 13.4463 64.069 13.7353C63.9773 14.0306 63.8201 14.2803 63.5965 14.4845C63.3749 14.6822 63.1205 14.8167 62.8339 14.888C62.5488 14.9528 62.2667 14.941 61.9872 14.8526C61.695 14.7601 61.4472 14.604 61.2437 14.3843C61.0417 14.1583 60.9052 13.9001 60.8352 13.6099C60.7727 13.3153 60.7909 13.0213 60.8886 12.7279Z" fill="#FB6250"/>
</g>
<defs>
<clipPath id="clip0_6510_4666">
<rect width="68" height="54" fill="white"/>
</clipPath>
</defs>
</svg>
