<svg width="29" height="23" viewBox="0 0 29 23" fill="none" xmlns="http://www.w3.org/2000/svg">
<g clip-path="url(#clip0_18_4212)">
<path d="M23.1958 4.17676C22.949 5.03339 22.5911 5.76976 22.1383 6.24638C21.6854 6.72301 21.1377 6.93971 20.5112 6.75691C19.8377 6.5605 19.4902 6.08277 19.3728 5.43996C19.2554 4.79716 19.3683 3.98931 19.6153 3.13268C19.8623 2.27604 20.2073 1.53584 20.6537 1.05746C21.1002 0.579076 21.6477 0.362358 22.3002 0.552527C22.9266 0.735178 23.2742 1.21292 23.4032 1.85907C23.5325 2.50523 23.4429 3.32013 23.1958 4.17676Z" fill="#3C3C3C"/>
<path d="M5.81116 4.08253C6.05816 4.93916 6.416 5.67553 6.86882 6.15214C7.32161 6.62876 7.86936 6.84548 8.49584 6.66268C9.16941 6.46627 9.51693 5.98854 9.6343 5.34573C9.75168 4.70293 9.63876 3.89508 9.39175 3.03843C9.14475 2.1818 8.79979 1.4416 8.35333 0.963218C7.9069 0.484838 7.35931 0.26812 6.70691 0.458288C6.08043 0.64094 5.73292 1.11868 5.60378 1.76484C5.47462 2.41099 5.56433 3.2259 5.81116 4.08253Z" fill="#3C3C3C"/>
<path d="M14.4499 2.95654C11.2209 2.95654 7.73354 3.55057 5.05332 5.04919C2.37308 6.54784 0.5 8.95157 0.5 12.5707C0.5 16.1081 2.15089 18.5115 4.72012 20.0308C7.28933 21.55 10.7767 22.1848 14.4499 22.1848C18.6588 22.1848 22.1464 21.4042 24.5816 19.8121C27.0167 18.2201 28.3996 15.8165 28.3996 12.5705C28.3996 8.82089 26.6874 6.41732 24.0872 4.95116C21.4871 3.48499 17.9999 2.95654 14.4499 2.95654Z" fill="#FB6250"/>
<path d="M11.2814 9.53631C11.7318 9.22923 12.3233 9.2287 12.7732 9.53521L14.0109 10.3784C14.3969 10.6413 14.4269 11.2005 14.0713 11.5043L12.7422 12.6397C12.3288 12.9928 11.7212 12.9932 11.3083 12.6406L9.98069 11.507C9.62551 11.2037 9.65613 10.6444 10.0424 10.381L11.2814 9.53631Z" fill="#FFFCD5"/>
<path d="M11.2814 9.53631C11.7318 9.22923 12.3233 9.2287 12.7732 9.53521L14.0109 10.3784C14.3969 10.6413 14.4269 11.2005 14.0713 11.5043L12.7422 12.6397C12.3288 12.9928 11.7212 12.9932 11.3083 12.6406L9.98069 11.507C9.62551 11.2037 9.65613 10.6444 10.0424 10.381L11.2814 9.53631Z" fill="#FFFCD5"/>
<path fill-rule="evenodd" clip-rule="evenodd" d="M6.29916 10.9093C6.28774 10.8622 6.25107 10.8255 6.20412 10.814L5.24522 10.5799C5.11357 10.5477 5.11357 10.3601 5.24522 10.328L6.20414 10.0939C6.25109 10.0824 6.28774 10.0457 6.29918 9.99861L6.53284 9.03741C6.56491 8.9055 6.75211 8.9055 6.78419 9.03741L7.01782 9.99852C7.02927 10.0456 7.06593 10.0823 7.11288 10.0938L8.07212 10.328C8.20377 10.3601 8.20377 10.5477 8.07212 10.5799L7.11288 10.8141C7.06593 10.8256 7.02929 10.8623 7.01784 10.9093L6.78419 11.8705C6.75211 12.0024 6.56491 12.0024 6.53284 11.8705L6.29916 10.9093Z" fill="white"/>
<path fill-rule="evenodd" clip-rule="evenodd" d="M17.0199 10.9093C17.0084 10.8622 16.9718 10.8255 16.9248 10.814L15.9659 10.5799C15.8343 10.5477 15.8343 10.3601 15.9659 10.328L16.9248 10.0939C16.9718 10.0824 17.0084 10.0457 17.0199 9.99861L17.2535 9.03741C17.2856 8.9055 17.4728 8.9055 17.5049 9.03741L17.7385 9.99852C17.75 10.0456 17.7866 10.0823 17.8336 10.0938L18.7928 10.328C18.9244 10.3601 18.9244 10.5477 18.7928 10.5799L17.8336 10.8141C17.7866 10.8256 17.75 10.8623 17.7385 10.9093L17.5049 11.8705C17.4728 12.0024 17.2856 12.0024 17.2535 11.8705L17.0199 10.9093Z" fill="white"/>
</g>
<defs>
<clipPath id="clip0_18_4212">
<rect width="28" height="22" fill="white" transform="translate(0.5 0.389648)"/>
</clipPath>
</defs>
</svg>
